<?xml version="1.0" encoding="UTF-8"?>
<svg width="29px" height="30px" viewBox="0 0 29 30" version="1.1" xmlns="http://www.w3.org/2000/svg" xmlns:xlink="http://www.w3.org/1999/xlink">
    <!-- Generator: Sketch 48.2 (47327) - http://www.bohemiancoding.com/sketch -->
    <title>011-drone</title>
    <desc>Created with Sketch.</desc>
    <defs></defs>
    <g id="coverr_hp_R3" stroke="none" stroke-width="1" fill="none" fill-rule="evenodd" transform="translate(-423.000000, -869.000000)">
        <g id="011-drone" transform="translate(423.000000, 869.000000)" fill-rule="nonzero">
            <path d="M18.8032105,20.1323267 L20.8928571,22.2381529 L19.0388108,24.1071429 L16.9768853,22.0292523 C16.6082237,21.6577363 16.1741403,21.3674985 15.7011889,21.1704191 C15.2288211,20.9733986 14.7182274,20.8688895 14.1964286,20.8688895 C13.1534144,20.8688895 12.1533534,21.2861026 11.4159718,22.0291935 L9.35404634,24.107084 L7.5,22.2380941 L9.58964661,20.1322679 C9.72568432,19.9951768 9.85115883,19.8485583 9.96478621,19.6942353 C10.4659839,19.0152495 10.7410357,18.1872927 10.7410357,17.3302827 L10.7410357,12.6696585 C10.7410357,11.8126485 10.4659839,10.9846917 9.96478621,10.3057059 C9.85110047,10.1513829 9.72568432,10.0047644 9.58964661,9.86767334 L7.5,7.76184706 L9.35404634,5.89285714 L11.3276144,7.88170614 C11.338236,7.89240994 11.3487992,7.90305493 11.3600044,7.91375873 C12.093826,8.63667714 13.0803474,9.04201018 14.1080712,9.04201018 L14.284786,9.04201018 C15.3125097,9.04201018 16.2990312,8.63661833 17.0328528,7.91375873 C17.0440579,7.90305493 17.0546211,7.89240994 17.0652427,7.88170614 L19.0388108,5.89285714 L20.8928571,7.76184706 L18.8032105,9.86767334 C18.6671728,10.0047644 18.5416983,10.1513829 18.4280709,10.3057059 C17.9268732,10.9846917 17.6518214,11.8126485 17.6518214,12.6696585 L17.6518214,17.3302827 C17.6518214,18.1872927 17.9268732,19.0152495 18.4280709,19.6942353 C18.5416983,19.8486171 18.6671728,19.9952356 18.8032105,20.1323267 Z" id="Shape" fill="#9B9B9B"></path>
            <circle id="Oval" fill="#E0E0E3" cx="23.5714286" cy="5.35714286" r="5.35714286"></circle>
            <g id="Group" transform="translate(20.892857, 0.535714)" fill="#C7C5CC">
                <ellipse id="Oval" cx="2.6576087" cy="4.82259036" rx="2.64829193" ry="2.6419105"></ellipse>
                <path d="M2.74937888,3.91302496 C2.61242236,3.91302496 2.4771545,3.85086919 2.38876165,3.73306368 C2.34223602,3.6710241 1.26154891,2.19131024 2.35848214,0.278422978 C2.48192935,0.0632013769 2.75677407,-0.0113274527 2.97239907,0.11170611 C3.1880823,0.234797762 3.26290761,0.509038296 3.13951863,0.724143718 C2.33262811,2.13118761 3.10137811,3.18481497 3.10923913,3.19527108 C3.25807453,3.39370482 3.21748835,3.67503227 3.01851708,3.82350904 C2.93775233,3.88392212 2.84312888,3.91302496 2.74937888,3.91302496 Z" id="Shape"></path>
                <path d="M2.32069099,9.5955142 C2.24493401,9.5955142 2.16818711,9.57640275 2.09772904,9.53620482 C1.88204581,9.41311317 1.8072205,9.13887263 1.93060947,8.92376721 C2.7375,7.51672332 1.96875,6.46309596 1.96088898,6.45263985 C1.81205357,6.25420611 1.85263975,5.97287866 2.05161102,5.82440189 C2.25052407,5.67586704 2.53253106,5.71641351 2.68136646,5.91490534 C2.72789208,5.97694492 3.80857919,7.45665878 2.71164596,9.36954604 C2.62855202,9.51436317 2.47680512,9.5955142 2.32069099,9.5955142 Z" id="Shape"></path>
            </g>
            <circle id="Oval" fill="#E0E0E3" cx="5.35714286" cy="5.35714286" r="5.35714286"></circle>
            <g id="Group" transform="translate(0.535714, 2.678571)" fill="#C7C5CC">
                <ellipse id="Oval" cx="4.83136364" cy="2.69778727" rx="2.65792208" ry="2.64829193"></ellipse>
                <path d="M6.19696753,3.24078028 C6.05957143,3.24078028 5.92387013,3.178125 5.83498052,3.05968556 C5.6856039,2.86071429 5.72768182,2.57777562 5.92737662,2.42894022 C5.98979221,2.38247283 7.47847403,1.30172748 9.40295455,2.39866071 C9.61942208,2.52204969 9.69451948,2.79695264 9.57068182,3.01257764 C9.44678571,3.2283191 9.17088312,3.30302795 8.95453247,3.1796972 C7.55818831,2.38381211 6.50957143,3.1197205 6.46568182,3.15145575 C6.38485714,3.2117236 6.29047403,3.24078028 6.19696753,3.24078028 Z" id="Shape"></path>
                <path d="M2.00361039,3.24177019 C1.4947013,3.24177019 0.900175325,3.11843944 0.256850649,2.7517663 C0.0403831169,2.62837733 -0.0347142857,2.35347438 0.0891233766,2.13784938 C0.213019481,1.92210792 0.488863636,1.84739907 0.705272727,1.97072981 C2.1015,2.76661491 3.15017532,2.03070652 3.19412338,1.99897127 C3.39381818,1.85013587 3.67538961,1.89171196 3.82482468,2.09068323 C3.9742013,2.28959627 3.93212338,2.57259317 3.73242857,2.72142857 C3.69087662,2.75240683 3.0171039,3.24177019 2.00361039,3.24177019 Z" id="Shape"></path>
            </g>
            <circle id="Oval" fill="#E0E0E3" cx="5.35714286" cy="24.6428571" r="5.35714286"></circle>
            <g id="Group" transform="translate(2.678571, 19.821429)" fill="#C7C5CC">
                <ellipse id="Oval" cx="2.69953416" cy="4.82026678" rx="2.64829193" ry="2.6419105"></ellipse>
                <path d="M2.60770575,9.59046041 C2.53194876,9.59046041 2.45520186,9.57134897 2.38474379,9.53115103 C2.16906056,9.40805938 2.09423525,9.13387694 2.21762422,8.91871343 C3.02445652,7.51166954 2.25576475,6.45804217 2.24790373,6.44758606 C2.09906832,6.24909423 2.1396545,5.96782487 2.33862578,5.81934811 C2.53753882,5.67081325 2.81948758,5.71135972 2.96838121,5.90985155 C3.01490683,5.97189114 4.09559394,7.45160499 2.99866071,9.36449225 C2.91556677,9.50930938 2.76376165,9.59046041 2.60770575,9.59046041 Z" id="Shape"></path>
                <path d="M3.03639363,3.90797117 C2.89943711,3.90797117 2.76416925,3.8458154 2.6757764,3.7280099 C2.62925078,3.66597031 1.54856366,2.18625645 2.64549689,0.273369191 C2.7689441,0.0581475904 3.04378882,-0.0164393287 3.25941382,0.106652324 C3.47509705,0.229743976 3.54992236,0.503984509 3.42653339,0.719089931 C2.61964286,2.12613382 3.38839286,3.17976119 3.39625388,3.1902173 C3.54508929,3.38870912 3.50450311,3.66997849 3.30553183,3.81845525 C3.22470885,3.87886833 3.13014363,3.90797117 3.03639363,3.90797117 Z" id="Shape"></path>
            </g>
            <circle id="Oval" fill="#E0E0E3" cx="23.5714286" cy="24.6428571" r="5.35714286"></circle>
            <g id="Group" transform="translate(18.750000, 21.964286)" fill="#C7C5CC">
                <ellipse id="Oval" cx="4.81149351" cy="2.65935559" rx="2.65792208" ry="2.64829193"></ellipse>
                <path d="M1.9866039,3.44848602 C1.47769481,3.44848602 0.883168831,3.32515528 0.239844156,2.95848214 C0.0233766234,2.83509317 -0.0517207792,2.56019022 0.0721168831,2.34456522 C0.195954545,2.12882376 0.471857143,2.05411491 0.688266234,2.17744565 C2.08449351,2.97321429 3.13316883,2.23742236 3.17711688,2.20568711 C3.37681169,2.05685171 3.65838312,2.09836957 3.80781818,2.29739907 C3.95719481,2.49631211 3.91511688,2.77930901 3.71542208,2.92814441 C3.67387013,2.9591809 3.00015584,3.44848602 1.9866039,3.44848602 Z" id="Shape"></path>
                <path d="M6.17996104,3.44749612 C6.04256494,3.44749612 5.90686364,3.38484084 5.81797403,3.26645963 C5.6685974,3.06748835 5.71067532,2.78454969 5.91037013,2.63571429 C5.97278571,2.58924689 7.46146753,1.50855978 9.38594805,2.60543478 C9.60241558,2.72882376 9.67751299,3.00372671 9.55367532,3.21935171 C9.42977922,3.43509317 9.15393506,3.50980202 8.93752597,3.38647127 C7.54118182,2.59052795 6.49256494,3.32643634 6.44867532,3.35822981 C6.36785065,3.41849767 6.27352597,3.44749612 6.17996104,3.44749612 Z" id="Shape"></path>
            </g>
            <path d="M12.873739,12.8571429 L12.8405467,12.8571429 C12.5538424,12.8571429 12.3214286,12.6172987 12.3214286,12.3214286 C12.3214286,12.0255584 12.5538424,11.7857143 12.8405467,11.7857143 L12.873739,11.7857143 C13.1604433,11.7857143 13.3928571,12.0255584 13.3928571,12.3214286 C13.3928571,12.6172987 13.1604433,12.8571429 12.873739,12.8571429 Z" id="Shape" fill="#E65A45"></path>
            <path d="M12.873739,13.9285714 L12.8405467,13.9285714 C12.5538424,13.9285714 12.3214286,13.6887273 12.3214286,13.3928571 C12.3214286,13.096987 12.5538424,12.8571429 12.8405467,12.8571429 L12.873739,12.8571429 C13.1604433,12.8571429 13.3928571,13.096987 13.3928571,13.3928571 C13.3929243,13.6887273 13.1604433,13.9285714 12.873739,13.9285714 Z" id="Shape" fill="#18C746"></path>
            <path d="M12.8571428,18.2142857 C12.5612727,18.2142857 12.3214286,18.0174474 12.3214286,17.774629 L12.3214286,14.9039425 C12.3214286,14.661124 12.5612727,14.4642857 12.8571428,14.4642857 C13.153013,14.4642857 13.3928571,14.661124 13.3928571,14.9039425 L13.3928571,17.7745721 C13.3929265,18.0173905 13.153013,18.2142857 12.8571428,18.2142857 Z" id="Shape" fill="#E0E0E3"></path>
            <g id="Group" transform="translate(4.285714, 4.285714)" fill="#9B9B9B">
                <ellipse id="Oval" cx="18.9865864" cy="1.34399529" rx="1.34463663" ry="1.33763736"></ellipse>
                <ellipse id="Oval" cx="1.37055648" cy="1.34399529" rx="1.34463663" ry="1.33763736"></ellipse>
                <ellipse id="Oval" cx="1.37055648" cy="20.0845761" rx="1.34463663" ry="1.33763736"></ellipse>
                <ellipse id="Oval" cx="18.9865864" cy="20.0845761" rx="1.34463663" ry="1.33763736"></ellipse>
            </g>
        </g>
    </g>
</svg>