<?xml version="1.0" encoding="UTF-8"?>
<svg width="33px" height="27px" viewBox="0 0 33 27" version="1.1" xmlns="http://www.w3.org/2000/svg" xmlns:xlink="http://www.w3.org/1999/xlink">
    <!-- Generator: Sketch 48.2 (47327) - http://www.bohemiancoding.com/sketch -->
    <title>003-dog</title>
    <desc>Created with Sketch.</desc>
    <defs></defs>
    <g id="Page-1" stroke="none" stroke-width="1" fill="none" fill-rule="evenodd">
        <g id="003-dog" fill-rule="nonzero">
            <path d="M29.2614301,1.62070379 C29.0647489,1.48032938 28.8162662,1.71462796 28.9470699,1.91879147 C30.0320501,3.61249763 32.0705092,7.62199763 28.5362079,9.80151185 L29.6488325,11.8819194 C30.6825817,11.2328957 32.4631741,9.69818246 32.4631741,7.37982938 C32.4631741,5.46071801 31.2032605,3.00634123 29.2614301,1.62070379 Z" id="Shape" fill="#F58C46"></path>
            <path d="M30.5461983,17.9070142 C30.0905726,17.2748175 29.8451966,16.5132512 29.8451966,15.7315948 L29.8451966,12.7840521 C29.8451966,10.341064 28.0107103,8.29546209 25.6017145,8.0523981 L14.8113232,7.01820853 C14.2159536,6.96113744 13.6731465,6.64999763 13.3197291,6.16316588 L12.8445113,5.50857583 L12.7896029,5.47114692 C12.9991552,4.75020853 12.8963763,3.88620853 12.599072,3.26303318 C12.1032477,2.2237891 10.3246843,0.0268080569 8.54117523,0.0268080569 L7.13631869,0.0268080569 C6.33602536,0.0268080569 5.56591264,0.335004739 4.98316063,0.888440758 L3.66516844,2.14029384 L0.384992955,3.06795498 C0.122053926,3.14082938 -0.0414666325,3.40519905 0.00919367235,3.67558294 L0.207396567,4.61533649 C0.292992827,5.07235308 0.662895478,5.41030095 1.11268797,5.46455687 L1.22307545,6.15779147 C1.29820994,6.54813981 1.57763417,6.8630545 1.95381388,6.98148341 C2.726653,7.22480332 4.1364551,7.57644313 5.69278532,7.55417773 C5.94634046,7.55053081 6.16052133,7.73825118 6.17313885,7.99379147 C6.20877226,8.71364218 6.33367939,9.82895972 6.72513962,11.0939289 L7.29349878,12.6810427 C7.71038427,13.6980213 8.29256565,14.8931232 9.06489753,16.2078057 C11.515677,20.3795616 11.519291,24.3313507 11.519291,24.3313507 L10.0037934,25.0959882 C9.64904445,25.2750071 9.42490906,25.6409147 9.42490906,26.0411801 L9.42490906,26.4447725 C9.42490906,26.73659 9.659316,26.973128 9.94850455,26.973128 L12.6496055,26.973128 C13.1944415,26.973128 13.6482919,26.5515569 13.6932458,26.0036232 L14.3718656,17.7334336 C17.1661714,18.5126588 21.7482977,17.9658768 23.9572518,16.8874763 C26.2065947,20.0682938 29.3216645,20.7208365 29.3216645,20.7208365 L29.3216645,24.3312867 L27.361954,25.1222844 C26.9644069,25.2827488 26.7036871,25.6713057 26.7036871,26.1033697 L26.7036871,26.4447085 C26.7036871,26.7365261 26.938094,26.973064 27.2272826,26.973064 L29.9889983,26.973064 C30.5080921,26.973064 30.9488177,26.5893697 31.0249033,26.0711872 L31.9083201,20.0537701 C31.9284194,19.9168507 31.8944979,19.7775 31.8138472,19.6655972 L30.5461983,17.9070142 Z" id="Shape" fill="#F6BB42"></path>
            <path d="M6.72507621,11.0939289 L7.29343538,12.6810427 C7.71032087,13.6980213 8.29250224,14.8931232 9.06483412,16.2078057 C9.47024337,16.8979052 9.80318112,17.5798152 10.0857122,18.2409313 C9.67415268,16.5010308 9.03148328,14.5133318 8.6721058,13.3348649 C7.88671257,10.7591161 8.10514154,7.91874171 8.05035993,6.73035782 C7.98492635,5.31036256 6.2832093,5.35438152 5.8032362,5.48650237 L1.1937825,5.9741019 L1.22301204,6.15766351 C1.29814654,6.54801185 1.57757077,6.86292654 1.95375048,6.98135545 C2.72652619,7.22461137 4.1363917,7.57631517 5.69272192,7.55404976 C5.94627706,7.55040284 6.16045792,7.73812322 6.17307545,7.99366351 C6.20870885,8.71370616 6.33361599,9.82895972 6.72507621,11.0939289 Z" id="Shape" fill="#EBC9A0"></path>
            <path d="M12.5991354,3.26303318 C12.2645491,2.56180095 11.3459427,1.33336493 10.2358544,0.608523697 C9.44691046,0.0933483412 8.38722877,0.455097156 8.06665493,1.34648104 L8.06164596,1.36042891 C7.9186685,1.75794313 7.9692654,2.18911137 8.15206097,2.56967062 C8.80665044,3.9322109 8.53103049,6.56528673 10.6356206,6.79638626 C12.9987748,7.05595735 13.2372397,4.60042891 12.5991354,3.26303318 Z" id="Shape" fill="#F58C46"></path>
            <path d="M5.76468618,3.19700474 C5.47556103,3.19700474 5.2385545,2.96040284 5.2385545,2.66864929 C5.2385545,2.37689573 5.47042526,2.14029384 5.75961381,2.14029384 L5.76474958,2.14029384 C6.05387473,2.14029384 6.28834507,2.37689573 6.28834507,2.66864929 C6.28834507,2.96040284 6.05387473,3.19700474 5.76468618,3.19700474 Z" id="Shape" fill="#4B3F4E"></path>
            <path d="M23.957125,16.8875403 C23.6809344,16.446519 23.4661829,16.0072891 23.3139484,15.6590403 C23.1432631,15.268436 22.7266946,15.0506445 22.3134232,15.1420735 C19.8457147,15.6877678 17.2496753,15.3172536 15.7664506,15.0011872 C15.1142705,14.8622204 14.4959485,15.3415664 14.461076,16.0133033 L14.3717388,17.7334976 C17.1660446,18.5127227 21.7481709,17.9659408 23.957125,16.8875403 Z" id="Shape" fill="#EBC9A0"></path>
            <path d="M5.46173882,4.91879858 C4.60977072,5.14893839 3.08476239,5.34113744 1.11370245,5.47108294 L1.22301204,6.15779147 C1.24805687,6.28792891 1.30271167,6.40469431 1.36915973,6.51352607 C1.38919559,6.51211848 1.40821698,6.51109479 1.42825285,6.50975118 C2.97798898,6.40162322 4.6752043,6.2248436 5.73203279,5.93955213 C6.01158384,5.86418246 6.17732356,5.57460427 6.10263289,5.29283175 C6.02800564,5.01041943 5.7404022,4.84221327 5.46173882,4.91879858 Z" id="Shape" fill="#D99365"></path>
            <path d="M0.00919367235,3.67558294 L0.175377226,4.46357346 C0.211327655,4.4674763 0.246517228,4.47381043 0.283672345,4.47381043 C0.801751633,4.47381043 1.22174395,4.07955924 1.22174395,3.59323934 C1.22174395,3.32458294 1.09081337,3.08702133 0.888742795,2.92546919 L0.384992955,3.06795498 C0.122053926,3.14082938 -0.0414666325,3.40519905 0.00919367235,3.67558294 Z" id="Shape" fill="#4B3F4E"></path>
            <path d="M6.73433329,11.6360403 C6.5115928,11.6330332 6.31256565,11.4654028 6.26368067,11.2211232 C6.20674331,10.9371114 6.37470219,10.6566185 6.63846548,10.5943649 C6.67536698,10.5858555 10.346115,9.689609 13.4558588,6.19765166 C13.6432195,5.98766588 13.953078,5.98005213 14.1481107,6.18108057 C14.3431433,6.38236493 14.3494204,6.71583412 14.1623133,6.92607583 C10.8355988,10.661545 7.00576854,11.5867749 6.84440374,11.6242038 C6.80756565,11.6326493 6.77066415,11.6364882 6.73433329,11.6360403 Z" id="Shape" fill="#6E4848"></path>
            <path d="M6.54500704,13.5880379 C6.11125592,13.5880379 5.75961381,13.2331991 5.75961381,12.7955047 L5.75961381,12.2671493 C5.75961381,11.829455 6.11125592,11.4746161 6.54500704,11.4746161 C6.97875817,11.4746161 7.33040028,11.829455 7.33040028,12.2671493 L7.33040028,12.7955047 C7.33040028,13.2331991 6.97875817,13.5880379 6.54500704,13.5880379 Z" id="Shape" fill="#F58C46"></path>
        </g>
    </g>
</svg>