<?xml version="1.0" encoding="UTF-8"?>
<svg width="23px" height="30px" viewBox="0 0 23 30" version="1.1" xmlns="http://www.w3.org/2000/svg" xmlns:xlink="http://www.w3.org/1999/xlink">
    <!-- Generator: Sketch 48.2 (47327) - http://www.bohemiancoding.com/sketch -->
    <title>007-greek</title>
    <desc>Created with Sketch.</desc>
    <defs></defs>
    <g id="Page-1" stroke="none" stroke-width="1" fill="none" fill-rule="evenodd">
        <g id="007-greek" fill-rule="nonzero">
            <rect id="Rectangle-path" fill="#BAC6CC" x="3.94356599" y="2.58146199" width="15.1125178" height="1.95251462"></rect>
            <polyline id="Shape" fill="#CFDCE5" points="19.056434 7.67497076 19.056434 27.5004094 3.94403299 27.5004094 3.94403299 7.67497076"></polyline>
            <g id="Group" transform="translate(3.911168, 7.660819)" fill="#BAC6CC">
                <polyline id="Shape" points="1.90001015 0.0141520468 1.90001015 19.8395906 0.0328654822 19.8395906 0.0328654822 0.0141520468"></polyline>
                <polyline id="Shape" points="15.1452665 0.0141520468 15.1452665 3.08473684 0.0328654822 3.08473684 0.0328654822 0.0141520468"></polyline>
            </g>
            <g id="Group" transform="translate(3.327411, 0.000000)" fill="#CFDCE5">
                <rect id="Rectangle-path" x="0.0371269036" y="0" width="16.2712741" height="2.58146199"></rect>
                <rect id="Rectangle-path" x="0.0371269036" y="27.5005848" width="16.2712741" height="2.44111111"></rect>
            </g>
            <g id="Group" transform="translate(3.327411, 0.000000)" fill="#BAC6CC">
                <rect id="Rectangle-path" x="0.0371269036" y="0" width="3.87544162" height="2.58146199"></rect>
                <rect id="Rectangle-path" x="0.0371269036" y="27.5005848" width="3.87544162" height="2.44111111"></rect>
            </g>
            <path d="M21.6793096,5.62122807 C20.9556269,4.89625731 20.0070812,4.53368421 19.0579518,4.53368421 L11.5000584,4.53368421 L3.9421066,4.53368421 C2.99297716,4.53368421 2.04448985,4.89619883 1.32074873,5.62122807 C0.163101523,6.78152047 0.163101523,8.66210526 1.32074873,9.82239766 C2.24722843,10.7505263 3.74929188,10.7505263 4.6757132,9.82239766 C4.93817005,9.55947368 5.10722589,9.23859649 5.18381472,8.90087719 L17.8072538,8.90087719 L17.8142589,8.89111111 C17.8897386,9.23233918 18.0594949,9.55690058 18.3244619,9.8222807 C19.2509416,10.7504094 20.7530051,10.7504094 21.6794264,9.8222807 C22.8369569,8.66216374 22.8369569,6.78152047 21.6793096,5.62122807 Z" id="Shape" fill="#CFDCE5"></path>
            <path d="M20.0018858,10.9177193 C19.2919797,10.9177193 18.582132,10.6470175 18.0417487,10.105614 C17.6077843,9.67087719 17.368736,9.0928655 17.368736,8.4780117 C17.368736,7.86315789 17.6077259,7.28508772 18.0417487,6.85040936 C18.4040863,6.4874269 18.885802,6.28748538 19.3980482,6.28748538 C19.9104112,6.28748538 20.3920102,6.48748538 20.7540558,6.85052632 C20.9100939,7.00701754 20.9099772,7.2605848 20.753764,7.41690058 C20.5976675,7.57321637 20.344434,7.57315789 20.1883959,7.41654971 C19.977368,7.20497076 19.696698,7.08842105 19.3980482,7.08842105 C19.0993401,7.08842105 18.8184949,7.20502924 18.6071168,7.41672515 C18.3241117,7.70017544 18.1683071,8.07701754 18.1683071,8.47795322 C18.1683071,8.87877193 18.3241117,9.25573099 18.6071168,9.53918129 C19.3762157,10.3096491 20.6275558,10.3096491 21.3966548,9.53918129 C22.3964543,8.53707602 22.3964543,6.90649123 21.3965964,5.90432749 C20.7720939,5.27871345 19.9415838,4.93415205 19.0580102,4.93415205 L3.9421066,4.93415205 C3.05853299,4.93415205 2.22802284,5.27871345 1.60346193,5.90438596 C0.603662437,6.90649123 0.603662437,8.53707602 1.6035203,9.53923977 C2.37256091,10.3096491 3.62390102,10.3096491 4.393,9.53918129 C4.67600508,9.25573099 4.83180964,8.87883041 4.83180964,8.47795322 C4.83180964,8.07701754 4.67600508,7.70017544 4.393,7.41672515 C4.1816802,7.20502924 3.90077665,7.08842105 3.60206853,7.08842105 C3.30341878,7.08842105 3.02274873,7.20497076 2.81172081,7.41654971 C2.65574112,7.57309942 2.40250761,7.57315789 2.24635279,7.41690058 C2.09008122,7.2605848 2.08996447,7.00695906 2.24600254,6.85052632 C2.6081066,6.48748538 3.08964721,6.28748538 3.60206853,6.28748538 C4.1143731,6.28748538 4.59603046,6.4874269 4.95836802,6.85040936 C5.39233249,7.2851462 5.63138071,7.86315789 5.63138071,8.4780117 C5.63138071,9.0928655 5.39239086,9.67093567 4.95836802,10.105614 C3.87748477,11.1884211 2.11886041,11.1884211 1.03803553,10.105614 C-0.273431472,8.79111111 -0.273431472,6.65251462 1.03797716,5.33812865 C1.81361421,4.56111111 2.84493655,4.13327485 3.94204822,4.13327485 L19.0579518,4.13327485 C20.1550635,4.13327485 21.1864442,4.56116959 21.9620228,5.33807018 C23.2734898,6.6525731 23.2734898,8.79116959 21.9620812,10.1055556 C21.4216396,10.6469591 20.7117335,10.9176608 20.0018858,10.9177193 Z" id="Shape" fill="#BAC6CC"></path>
            <g id="Group" transform="translate(6.479695, 12.865497)" fill="#ACB8BC">
                <path d="M3.45472843,1.71807018 L3.45472843,14.6346199 L0.0563908629,14.6346199 L0.0563908629,1.71807018 C0.0563908629,0.971111111 0.537464467,0.336315789 1.20580711,0.108011696 C1.37836548,0.0479532164 1.56294924,0.0159064327 1.75553046,0.0159064327 C2.69374365,0.0159064327 3.45472843,0.778187135 3.45472843,1.71807018 Z" id="Shape"></path>
                <path d="M9.98480203,1.71807018 L9.98480203,14.6346199 L6.58652284,14.6346199 L6.58652284,1.71807018 C6.58652284,0.971111111 7.06759645,0.336315789 7.73593909,0.108011696 C7.90849746,0.0479532164 8.09308122,0.0159064327 8.28566244,0.0159064327 C9.22387563,0.0159064327 9.98480203,0.778187135 9.98480203,1.71807018 Z" id="Shape"></path>
            </g>
            <g id="Group" transform="translate(4.494924, 4.502924)" fill="#BAC6CC">
                <path d="M4.3400533,10.0806433 L4.3400533,22.997193 L2.04122081,22.997193 L2.04122081,10.0806433 C2.04122081,9.33368421 2.52229442,8.69888889 3.19063706,8.4705848 C3.85892132,8.69877193 4.3400533,9.33368421 4.3400533,10.0806433 Z" id="Shape"></path>
                <path d="M10.8701269,10.0806433 L10.8701269,22.997193 L8.57129442,22.997193 L8.57129442,10.0806433 C8.57129442,9.33368421 9.05236802,8.69888889 9.72071066,8.4705848 C10.3890533,8.69877193 10.8701269,9.33368421 10.8701269,10.0806433 Z" id="Shape"></path>
                <path d="M13.8089898,0.0307602339 C12.8994391,0.048128655 12.0098528,0.331812865 11.2722183,0.866491228 C10.0488401,1.75426901 8.54420812,2.27766082 6.91704569,2.27766082 C5.28988325,2.27766082 3.78525127,1.75432749 2.5618731,0.866491228 C1.82423858,0.331812865 0.934652284,0.048128655 0.0251015228,0.0307602339 L13.8089898,0.0307602339 Z" id="Shape"></path>
            </g>
        </g>
    </g>
</svg>