<?xml version="1.0" encoding="UTF-8"?>
<svg width="12px" height="30px" viewBox="0 0 12 30" version="1.1" xmlns="http://www.w3.org/2000/svg" xmlns:xlink="http://www.w3.org/1999/xlink">
    <!-- Generator: Sketch 48.2 (47327) - http://www.bohemiancoding.com/sketch -->
    <title>019-cutlery</title>
    <desc>Created with Sketch.</desc>
    <defs></defs>
    <g id="coverr_hp_R3" stroke="none" stroke-width="1" fill="none" fill-rule="evenodd" transform="translate(-269.000000, -869.000000)">
        <g id="019-cutlery" transform="translate(269.000000, 869.000000)" fill-rule="nonzero">
            <path d="M2.7445,16.0344828 C2.468,16.0344828 2.2445,15.8032759 2.2445,15.5172414 L2.2445,0.517241379 C2.2445,0.231206897 2.468,0 2.7445,0 C3.021,0 3.2445,0.231206897 3.2445,0.517241379 L3.2445,15.5172414 C3.2445,15.8032759 3.021,16.0344828 2.7445,16.0344828 Z" id="Shape" fill="#D2D5D7"></path>
            <path d="M2.7445,30 C1.9195,30 1.2445,29.3017241 1.2445,28.4482759 L1.2445,17.0689655 C1.2445,16.2155172 1.9195,15.5172414 2.7445,15.5172414 C3.5695,15.5172414 4.2445,16.2155172 4.2445,17.0689655 L4.2445,28.4482759 C4.2445,29.3017241 3.5695,30 2.7445,30 Z" id="Shape" fill="#A46F3E"></path>
            <path d="M2.7445,18.6206897 C2.4695,18.6206897 2.2445,18.387931 2.2445,18.1034483 C2.2445,17.8189655 2.4695,17.5862069 2.7445,17.5862069 C3.0195,17.5862069 3.2445,17.8189655 3.2445,18.1034483 C3.2445,18.387931 3.0195,18.6206897 2.7445,18.6206897 Z" id="Shape" fill="#D2D5D7"></path>
            <path d="M2.7445,20.6896552 C2.4695,20.6896552 2.2445,20.4568966 2.2445,20.1724138 C2.2445,19.887931 2.4695,19.6551724 2.7445,19.6551724 C3.0195,19.6551724 3.2445,19.887931 3.2445,20.1724138 C3.2445,20.4568966 3.0195,20.6896552 2.7445,20.6896552 Z" id="Shape" fill="#D2D5D7"></path>
            <path d="M2.7445,9.82758621 C1.366,9.82758621 0.2445,8.66741379 0.2445,7.24137931 L0.2445,0.517241379 C0.2445,0.231206897 0.468,0 0.7445,0 C1.021,0 1.2445,0.231206897 1.2445,0.517241379 L1.2445,7.24137931 C1.2445,8.09689655 1.9175,8.79310345 2.7445,8.79310345 C3.5715,8.79310345 4.2445,8.09689655 4.2445,7.24137931 L4.2445,0.517241379 C4.2445,0.231206897 4.468,0 4.7445,0 C5.021,0 5.2445,0.231206897 5.2445,0.517241379 L5.2445,7.24137931 C5.2445,8.66741379 4.123,9.82758621 2.7445,9.82758621 Z" id="Shape" fill="#D2D5D7"></path>
            <path d="M10.25,16.5517241 C11.789,14.9596552 11.75,11.2406897 11.75,7.24137931 C11.75,3.24206897 12.021,0.517241379 8.75,0.517241379 L8.75,16.5517241 L10.25,16.5517241 Z" id="Shape" fill="#D2D5D7"></path>
            <path d="M9.75,30 C8.925,30 8.25,29.3017241 8.25,28.4482759 L8.25,17.0689655 C8.25,16.2155172 8.925,15.5172414 9.75,15.5172414 C10.575,15.5172414 11.25,16.2155172 11.25,17.0689655 L11.25,28.4482759 C11.25,29.3017241 10.575,30 9.75,30 Z" id="Shape" fill="#A46F3E"></path>
            <path d="M9.75,18.6206897 C9.475,18.6206897 9.25,18.387931 9.25,18.1034483 C9.25,17.8189655 9.475,17.5862069 9.75,17.5862069 C10.025,17.5862069 10.25,17.8189655 10.25,18.1034483 C10.25,18.387931 10.025,18.6206897 9.75,18.6206897 Z" id="Shape" fill="#D2D5D7"></path>
            <path d="M9.75,20.6896552 C9.475,20.6896552 9.25,20.4568966 9.25,20.1724138 C9.25,19.887931 9.475,19.6551724 9.75,19.6551724 C10.025,19.6551724 10.25,19.887931 10.25,20.1724138 C10.25,20.4568966 10.025,20.6896552 9.75,20.6896552 Z" id="Shape" fill="#D2D5D7"></path>
        </g>
    </g>
</svg>