<?xml version="1.0" encoding="UTF-8"?>
<svg width="25px" height="30px" viewBox="0 0 25 30" version="1.1" xmlns="http://www.w3.org/2000/svg" xmlns:xlink="http://www.w3.org/1999/xlink">
    <!-- Generator: Sketch 48.2 (47327) - http://www.bohemiancoding.com/sketch -->
    <title>013-nature-1</title>
    <desc>Created with Sketch.</desc>
    <defs></defs>
    <g id="coverr_hp_R3" stroke="none" stroke-width="1" fill="none" fill-rule="evenodd" transform="translate(-585.000000, -870.000000)">
        <g id="013-nature-1" transform="translate(585.000000, 870.000000)" fill-rule="nonzero">
            <path d="M20.1392924,25.0078059 C18.1016099,25.9823988 15.4501469,24.549648 15.0033422,23.5817308 C14.5565375,22.6138136 15.1654138,19.6217743 17.2030963,18.6471814 C19.7004642,17.4527714 23.3020815,18.2106143 24.6472225,18.5629232 C24.9334919,18.6379196 25.0806148,18.9566094 24.9545854,19.2287497 C24.3624303,20.5076585 22.6366603,23.8133959 20.1392924,25.0078059 Z" id="Shape" fill="#18C746"></path>
            <path d="M24.6501125,18.5320817 C23.3045821,18.1990752 19.7018635,17.482753 17.2037729,18.6117236 C15.1655008,19.5329204 14.5564482,22.3610316 15.0033823,23.2759184 C15.0124841,23.2945641 15.0280281,23.3143466 15.0389029,23.3333333 C16.7215546,22.3543237 21.2852819,19.8278398 25,18.9520633 C24.9926122,18.7604908 24.8601041,18.5840394 24.6501125,18.5320817 Z" id="Shape" fill="#19DF4D"></path>
            <path d="M14.117043,3.977625 C14.5042163,5.48932345 13.2393466,7.12160782 12.5504876,7.30667754 C11.8616286,7.49174727 9.97737729,6.70521624 9.590204,5.19351779 C9.14681561,3.46218288 9.93854646,1.28392752 10.3677168,0.292259703 C10.4926923,0.00342857353 10.8434244,-0.0907887404 11.0907469,0.098074148 C11.9399474,0.746338212 13.6736546,2.24629009 14.117043,3.977625 Z" id="Shape" fill="#18C746"></path>
            <path d="M12.641836,6.66666667 C13.2984822,6.48590696 14.4867695,5.00333081 14.1206099,3.62885277 C13.6992709,2.04712148 12.0517229,0.676779555 11.2448093,0.0844757117 C11.1116294,-0.0132820898 10.9502353,-0.0203246759 10.8108108,0.0333331226 C11.1543196,0.974580337 11.9197351,3.2582786 12.641836,6.66666667 Z" id="Shape" fill="#19DF4D"></path>
            <path d="M8.29246021,14.2590634 C10.6252423,14.9284501 11.7547907,17.8755712 11.4324759,18.9306364 C11.1101611,19.9857015 8.50719897,21.8617925 6.17441683,21.192463 C3.2862188,20.3637121 0.894157658,17.2191168 0.0800160995,16.0387348 C-0.084122963,15.8007471 0.0140062175,15.479501 0.285367056,15.3664869 C1.63130737,14.8059371 5.40426218,13.4303125 8.29246021,14.2590634 Z" id="Shape" fill="#18C746"></path>
            <path d="M8.28976055,14.274572 C5.39912314,13.3962087 1.62298168,14.8541838 0.275904581,15.4482905 C0.0465067353,15.5494512 -0.0481597637,15.8059311 0.0234605838,16.0357866 C2.2813334,16.2276158 8.74371064,16.9712802 11.3898816,19.3333333 C11.4040047,19.2974904 11.4225007,19.2601313 11.4324283,19.2258046 C11.7550153,18.1075183 10.6245721,14.9839703 8.28976055,14.274572 Z" id="Shape" fill="#19DF4D"></path>
            <path d="M10.8543938,8.04675343 C12.2006779,8.79190994 12.3713705,10.6473682 11.9748951,11.1983927 C11.5784196,11.7493626 9.59510753,12.412647 8.24882346,11.6674905 C6.70698139,10.8141185 5.7959977,8.89761133 5.43361091,7.98220672 C5.32810432,7.71560312 5.52995656,7.43506268 5.84977927,7.40390974 C6.94790784,7.29684199 9.31255177,7.19332678 10.8543938,8.04675343 Z" id="Shape" fill="#18C746"></path>
            <path d="M10.308091,8.06529554 C8.91875531,7.18968795 6.78800251,7.29589357 5.79854794,7.40574405 C5.58667438,7.42923938 5.43454995,7.59185622 5.40540541,7.78452914 C6.56242709,8.28437968 9.37866637,9.60415554 11.2908631,11.3333333 C11.2992303,11.321838 11.3105175,11.3102305 11.3177053,11.2987913 C11.6750208,10.7335576 11.5212118,8.829819 10.308091,8.06529554 Z" id="Shape" fill="#19DF4D"></path>
            <path d="M19.0927286,13.7928643 C17.7203923,14.4130155 15.9346931,13.5013139 15.6338119,12.8853301 C15.3328714,12.2694034 15.7429696,10.3653913 17.1153059,9.745183 C18.6870228,9.0348892 20.9081657,9.40950324 21.9317196,9.64459325 C22.229811,9.71304223 22.3830711,10.0266859 22.2475588,10.2911193 C21.7823771,11.1990531 20.6644454,13.0826276 19.0927286,13.7928643 Z" id="Shape" fill="#18C746"></path>
            <path d="M21.9429922,9.66607518 C20.9176292,9.41476019 18.6925607,9.01429176 17.1180661,9.77360724 C15.7433043,10.4366199 15.3325408,12.4720394 15.6339537,13.1304749 C15.6637442,13.1955312 15.71173,13.2640051 15.7686946,13.3333333 C17.2126107,11.800971 20.7450705,10.6748748 22.2864447,10.2396202 C22.3382956,9.98793901 22.2011762,9.72936164 21.9429922,9.66607518 Z" id="Shape" fill="#19DF4D"></path>
            <g id="Group" transform="translate(3.378378, 2.666667)" fill="#109C35">
                <path d="M9.13042447,23.2232357 C9.0027959,23.2232357 8.87522664,23.1740241 8.7793866,23.0765874 C8.59393375,22.8872272 8.60057612,22.5864444 8.79456918,22.4045124 C8.95535033,22.25415 12.7976108,18.6944912 18.2526053,17.1349243 C18.5101754,17.0606426 18.7796069,17.2059561 18.8550453,17.4579915 C18.9304838,17.7100269 18.7824536,17.9736688 18.5248835,18.0474862 C13.2956706,19.5420566 9.5041769,23.0557537 9.46622045,23.0915018 C9.37233754,23.1795952 9.25141066,23.2232357 9.13042447,23.2232357 Z" id="Shape"></path>
                <path d="M1.05180886,13.8941543 C0.719274761,13.859799 0.526230619,13.849121 0.526230619,13.849121 C0.259171397,13.8324076 0.0286452597,14.0333744 0.0129882233,14.2956235 C-0.00266881301,14.5574084 0.201287808,14.7825166 0.468821486,14.7978372 C0.474989409,14.7983015 0.650953148,14.8089795 0.951224265,14.8391564 C0.968304668,14.8410134 0.985385072,14.841942 1.00199102,14.841942 C1.24769974,14.841942 1.45877319,14.6604742 1.4843938,14.4158669 C1.51238668,14.1550106 1.31886808,13.9210814 1.05180886,13.8941543 Z" id="Shape"></path>
                <path d="M15.9236211,8.75548762 C15.854825,8.50205945 15.5887147,8.35262562 15.3292468,8.41802831 C15.1371516,8.46816844 14.9516394,8.52295117 14.7723545,8.58185421 C14.5176311,8.66542109 14.3805134,8.93463411 14.4659154,9.18341967 C14.5342371,9.38252937 14.7234856,9.50787969 14.9264933,9.50787969 C14.9777345,9.50787969 15.0299246,9.49998726 15.080632,9.48327389 C15.2409387,9.43081246 15.4065238,9.38160085 15.5786919,9.33708988 C15.8377446,9.26930786 15.9923579,9.00938004 15.9236211,8.75548762 Z" id="Shape"></path>
                <path d="M12.9575023,9.42663411 C11.9561044,10.0570418 11.2709904,10.8145407 10.803533,11.5166185 C10.7166483,8.0711097 10.1950436,4.27119604 8.91419131,0.355623496 C8.83258494,0.105909413 8.5603067,-0.0324401982 8.3036855,0.0478768577 C8.04801322,0.127729653 7.90709989,0.395549894 7.98918072,0.645263977 C9.06916038,3.94696815 9.5936711,7.16237792 9.77265949,10.1450771 C7.88343641,7.60168436 5.40155893,6.56719604 5.27731085,6.51734607 C5.03112768,6.41799434 4.74556469,6.53220241 4.64308227,6.77495258 C4.54059985,7.01770276 4.65826485,7.29573673 4.90634584,7.39555272 C4.93872744,7.40884218 8.13608405,8.7367431 9.8418114,12.0780255 C9.86547488,14.0102194 9.75332543,15.8201967 9.56360247,17.4635626 C8.17854783,15.576402 5.37623486,14.6450375 3.03076337,14.1884954 C2.76465305,14.1341769 2.51230196,14.3045605 2.45963738,14.5617028 C2.4069728,14.8193093 2.57825129,15.0694876 2.84104041,15.1205563 C4.9818436,15.5375782 8.64831822,16.6182604 9.33218673,19.1728535 C8.63064475,23.6751352 7.45962891,26.5617325 7.43513514,26.6205195 C7.33407608,26.8637339 7.45316445,27.1408393 7.70124545,27.2401911 C7.76150131,27.2643326 7.823655,27.2754749 7.88480047,27.2754749 C8.07594679,27.2754749 8.25766331,27.1640524 8.33446581,26.979799 C8.3599085,26.9189229 9.58483436,23.906569 10.304287,19.2191635 C10.3051767,19.2142307 10.3057697,19.209472 10.3065407,19.2045393 C10.554681,17.5840962 10.7433957,15.7680255 10.7997967,13.799155 C10.8891722,13.4269922 11.4352114,11.5152838 13.4830806,10.2260906 C13.7088622,10.0840849 13.7738626,9.7902661 13.6286791,9.56933616 C13.483555,9.34863836 13.1828095,9.28509271 12.9575023,9.42663411 Z" id="Shape"></path>
            </g>
        </g>
    </g>
</svg>