<?xml version="1.0" encoding="UTF-8"?>
<svg width="29px" height="30px" viewBox="0 0 29 30" version="1.1" xmlns="http://www.w3.org/2000/svg" xmlns:xlink="http://www.w3.org/1999/xlink">
    <!-- Generator: Sketch 48.2 (47327) - http://www.bohemiancoding.com/sketch -->
    <title>people</title>
    <desc>Created with Sketch.</desc>
    <defs></defs>
    <g id="coverr_hp_R3" stroke="none" stroke-width="1" fill="none" fill-rule="evenodd" transform="translate(-903.000000, -869.000000)">
        <g id="people" transform="translate(903.000000, 869.000000)" fill-rule="nonzero">
            <path d="M6.83896876,26.879991 C6.83896876,26.879991 13.1166923,26.8199724 14.1312937,24 C14.1312937,24 15.4629321,28.2000056 14.8287987,30 L5,30 L6.83896876,26.879991 Z" id="Shape" fill="#333333"></path>
            <g id="Group" transform="translate(2.000000, 9.000000)">
                <path d="M8.89781538,0.026377551 C8.89781538,0.026377551 10.5224308,0.265852041 10.5826205,1.28352041 C10.6428103,2.24136224 10.9436462,6.37197449 10.9436462,6.37197449 L9.25884103,1.82229592 C9.31903077,1.76246939 8.59697949,0.505326531 8.89781538,0.026377551 Z" id="Shape" fill="#595959"></path>
                <ellipse id="Oval" fill="#425A6B" cx="2.03832821" cy="7.26993367" rx="1.98564103" ry="3.71154592"></ellipse>
            </g>
            <path d="M11.6546864,3.3104103 C11.6546864,3.3104103 11.6546864,4.28312103 11.7697729,4.54253082 C11.8848595,4.80194061 12,5.12615726 12,5.19102491 C12,5.25589255 11.8273432,5.51524155 11.8273432,5.7097837 C11.8273432,5.90432584 11.8849135,6.81216892 11.7697729,7.20125321 C11.6546864,7.65520515 11.5395459,8.30363844 11.5395459,8.69272273 C11.5395459,9.01693938 10.6762619,9.73030111 10.3309483,9.73030111 L10.3309483,11.3515059 L9.75540764,12 L7.74109628,8.49824138 C7.74109628,8.49824138 7.16555563,7.52553065 7.22312588,7.26612086 C7.28069613,7.00671107 7.28069613,7.00671107 7.28069613,7.00671107 L7.33826638,7.00671107 L7.33826638,5.96913269 C7.33826638,5.96913269 6.30232558,4.21825338 7.85623679,3.4400848 C9.35257774,2.53224172 11.6546864,3.3104103 11.6546864,3.3104103 Z" id="Shape" fill="#EDBE85"></path>
            <path d="M10.4999777,12 L11,11.6037606 L11,10.1886652 C11,10.1886652 9.57145089,10.0754767 8,9 C8,9 10.0714063,11.4339513 10.4999777,12 Z" id="Shape" fill="#FFDC64"></path>
            <path d="M14,24.0346926 C14,24.0346926 12.974154,26.2703042 11.7069092,26.7050259 C10.4396644,27.1397476 9.17241965,27.0155081 8.44827976,26.8292071 C7.72413988,26.6429062 7.72413988,26.3324239 7.72413988,26.3324239 C7.72413988,26.3324239 8.50864361,23.8483916 8.44827976,22.2338026 C8.44827976,20.5570938 7.9655387,17.2657961 7.9655387,17.1415566 C7.9655387,17.0173172 7,10.3726019 7,10.3726019 L8.32760864,10 L9.35345462,10.3726019 C9.35345462,10.3726019 10.2586295,11.4904078 10.2586295,11.8630097 C10.2586295,11.8630097 10.6206994,10.8693851 10.7413705,10.5589029 C10.8620417,10.3104822 10.8620417,10.3104822 10.8620417,10.3104822 L11.9482515,11.5524693 L12.9137902,14.2228026 L13.336224,19.2529288 L14,24.0346926 Z" id="Shape" fill="#E8EAE8"></path>
            <path d="M2,9.89661099 C2,9.89661099 2.6557498,9.4540625 3.44262497,9.83337284 C4.16390671,10.2126832 4.5573443,11.1609591 4.75406309,12.0459968 C4.88518846,12.8678556 4.95078188,15.4597899 4.62293772,16.1551724 C4.29509356,16.850555 2.72134322,21.5919343 2.72134322,21.5919343 C2.72134322,21.5919343 2.91806201,28.2298653 2.39349906,30 L6.78690591,30 C6.78690591,30 10,26.9022791 10,21.3391002 C10,21.3391002 9.14753141,14.7644073 8.42624966,13.3103448 C7.70496792,11.8563416 6.59018711,8 6.59018711,8 C6.59018711,8 5.54099973,8.50572737 5.21315557,8.63220366 C4.88518846,8.69544181 2.98359396,9.26440733 2,9.89661099 Z" id="Shape" fill="#595959"></path>
            <path d="M6,20.0424656 L7.6287414,19 C7.6287414,19 8.55945077,21.0849312 7.47364741,21.8957197 C6.54293804,22.5328182 6,20.0424656 6,20.0424656 Z" id="Shape" fill="#CED6E0"></path>
            <path d="M16.8275599,11.7482962 C16.8275599,11.7482962 16.2413566,16.7249269 16.1880472,17.2645636 C16.1347378,17.8042003 15.8682908,18.5836942 16.0814784,19.0633525 C16.294666,19.5430108 17.2539351,20.2625264 17.7868291,19.9027686 C18.2664636,19.5430108 17.7868291,15.2858957 17.7868291,15.2858957 L17.8933979,11.3885384 C17.8933979,11.3885384 18.2131543,10.309265 16.8275599,11.7482962 Z" id="Shape" fill="#50E377"></path>
            <path d="M26.8764442,24.9648931 C26.8764442,24.9648931 28.4736625,26.3771546 27.8593788,30 L18.030206,30 C18.030206,30 16.7401296,26.3157895 17.0472714,24.6578947 C17.3544133,23 17.3544133,23 17.3544133,23 L26.8764442,24.9648931 Z" id="Shape" fill="#C1C1C1"></path>
            <g id="Group" transform="translate(16.000000, 2.000000)" fill="#F26F5A">
                <path d="M1.23412949,8.06455125 C1.2946655,8.70973107 1.2946655,9.35485042 1.23412949,10.0000302 C1.17359348,10.387126 1.1131142,10.7742218 0.992042179,11.1613176 C0.749954866,12.1290571 0.507924288,13.0967966 0.0842856743,14 C0.205300963,13.1612723 0.326372987,12.2580689 0.205300963,11.4193412 C0.144764951,11.0967815 0.0842856743,10.7741614 0.0237496624,10.4516017 C-0.0367863495,10.129042 0.0237496624,9.74194621 0.144764951,9.48386219 C0.205300963,9.35485042 0.326316252,9.29031429 0.386852264,9.16130252 C0.568403565,8.83874285 0.568403565,8.38711092 0.507867553,8.00001512 C0.447331541,7.61291932 0.386852264,7.1612874 0.447331541,6.7741916 C0.507867553,6.3870958 0.810434143,6 1.17353675,6 C1.47610334,6 1.77872666,6.25808403 1.89974195,6.5806437 C2.02075724,6.90320337 2.02075724,7.22582352 1.96027796,7.61291932" id="Shape"></path>
                <path d="M5,5.51936047 C5,6.88372093 4.04390342,8 2.76912791,8 C1.55805233,8 0.538255814,6.88372093 0.538255814,5.51936047 C0.538255814,4.155 -0.672819768,0 0.538255814,0 C1.81297157,0 5,4.15505814 5,5.51936047 Z" id="Shape"></path>
                <ellipse id="Oval" cx="5.5" cy="3" rx="1.5" ry="3"></ellipse>
            </g>
            <path d="M17,2.82763404 C17,2.82763404 17,3.85087476 17.1679992,4.39260039 C17.3359983,4.93432603 17.6159794,4.93432603 17.6719966,5.17511179 C17.6719966,5.41589754 17.6159794,5.83720208 18.1199769,6.19835251 C18.6239744,6.61971348 18.9599727,7.88373996 19.4639702,7.76331886 C19.9679677,7.6429542 20.0239849,7.6429542 20.0239849,7.6429542 C20.0239849,7.6429542 19.4639702,8.72640547 19.0720071,8.90698068 C18.6240269,9.14776644 18.5680097,11.7961841 18.5680097,11.7961841 L19.4080055,12.8796353 L23.103987,13 L24,8.12446929 C24,8.12446929 21.4800126,6.6798676 21.4239954,6.0177773 C21.3679782,5.355687 21.5919945,4.45281094 21.2559962,3.73051009 C20.8639807,2.9479987 19.4640227,2.16554374 19.4640227,2.16554374 C19.4640227,2.16554374 18.1759941,1.50339701 17,2.82763404 Z" id="Shape" fill="#FFE1B4"></path>
            <path d="M17.5384615,11.2557309 C17.5384615,11.2557309 17.8375881,13.1735628 19.2734856,13.3013983 C20.709383,13.4292338 21.7863061,11.3196187 22.025641,11 L22.2051282,12.7899964 L21.6666667,20.3334885 L24,25.9591487 C24,25.9591487 20.2307692,26.1509319 19.1538462,25.7034178 C18.0769231,25.2559038 17.5384615,24.6805542 17.5384615,24.6805542 C17.5384615,24.6805542 17.7777965,21.42024 17.5384615,19.9499221 C17.2991266,18.4156566 17,13.2375105 17,13.2375105 L17.5384615,11.2557309 Z" id="Shape" fill="#E8EAE8"></path>
            <path d="M17.8421001,20.6535493 L18,23.7583145 C18,23.7583145 17.8421001,26.4829067 17.6842001,26.9264021 C17.5263002,27.306575 17.0526004,26.1026744 17.0526004,25.8492654 C17.0526004,25.6591789 17.2631501,21.4138951 17.42105,20.7803132 C17.5263002,20.1466719 17,14.6975468 17,14.6975468 L17.3157999,14.000583 C17.2631008,13.9371416 18,19.0694758 17.8421001,20.6535493 Z" id="Shape" fill="#18C746"></path>
            <path d="M18,11.3076923 C18,11.3076923 17.894755,13.1666466 17.6842157,13.7435697 C17.5263236,14.3204928 17.4736764,14.1281851 17.4736764,14.5769231 C17.4736764,15.0256611 17.9473528,18.3589543 17.9473528,19.5128005 C17.9473528,20.6666466 18,24 18,24 C18,24 17.8421079,20.4743389 17.8421079,19.7051082 C17.8421079,18.9358774 17,15.2820312 17,14.5769231 C17,13.8718149 17.7368135,9 17.7368135,9 L18,11.3076923" id="Shape" fill="#E8EAE8"></path>
            <path d="M18,11.3076923 C18,11.3076923 17.894755,13.1666466 17.6842157,13.7435697 C17.5263236,14.3204928 17.4736764,14.1281851 17.4736764,14.5769231 C17.4736764,15.0256611 17.9473528,18.3589543 17.9473528,19.5128005 C17.9473528,20.6666466 18,24 18,24 C18,24 17.8421079,20.4743389 17.8421079,19.7051082 C17.8421079,18.9358774 17,15.2820312 17,14.5769231 C17,13.8718149 17.7368135,9 17.7368135,9 L18,11.3076923" id="Shape" fill="#18C746"></path>
            <path d="M29,25.3667737 C29,25.3667737 25.5759537,27.3103651 25.0256575,28 L23.4970378,25.6802335 C23.4970378,25.6802335 22.2741764,21.9184817 22.0907444,20.3510655 C21.9073123,18.7836493 22.0295812,16.5893137 22.2130133,15.4607881 C22.3964454,14.2695471 23.1301737,11.5736642 23.1301737,11.5736642 L23.741633,8 C24.1696603,8.06271546 25.6982227,8.25080305 26.309682,8.50154731 C26.9822472,8.81500704 27.2268424,8.87772249 27.2268424,8.87772249 C27.2268424,8.87772249 26.003981,8.62691945 25.3925217,12.2005837 C25.0868207,13.8306565 26.615383,19.3479121 27.1656793,20.4764376 C27.7159755,21.7304529 29,25.3667737 29,25.3667737 Z" id="Shape" fill="#18C746"></path>
            <path d="M24.1784268,8 C24.7828851,8.1888116 25.1282205,8.69228954 24.9555528,9.13286961 L24.7828851,9.51049281 C24.7828851,9.51049281 22.4515071,15.2377977 22.2788394,16.8111884 C22.1061717,18.3216812 22.8832977,23.167826 23.3150074,24.3006956 C23.7467171,25.4335652 23.9194657,26 23.9194657,26 C23.9194657,26 22.0197974,22.7902028 21.6744621,21.9091016 C21.3291267,21.0280005 20.8109618,17.0629569 21.0700038,15.8671304 C21.4154201,14.6713039 23.3150074,10.8950719 23.4013817,10.3286371 C23.6603428,9.69930441 24.1784268,8 24.1784268,8 Z" id="Shape" fill="#50E377"></path>
            <path d="M19.490832,8.17402735 C19.9801423,9.41316975 20.1025129,10.7827257 19.9190144,12.0870442 C19.8578291,12.5435833 19.7355158,12.934885 19.7355158,13.3913628 C19.6743305,13.8479018 19.7355158,14.3043797 19.8578291,14.6956814 C19.5520173,14.1739662 19.3685187,13.456539 19.4296467,12.8695865 C19.4296467,12.8695865 19.0014643,14.3695559 19.5519599,15.7391118 C19.5519599,15.7391118 18.6956525,14.1086677 18.6956525,13.2608882 C18.6956525,13.2608882 18.2063421,13.7174272 17.9616583,14.5652068 C17.7169744,15.4782237 17.7781597,15.7391118 17.4723479,16 C17.4723479,16 17.7781597,14.9565084 17.839345,14.4347932 C17.9005303,13.913078 18.5733392,12.9348238 18.5733392,12.9348238 C18.5733392,12.9348238 17.4723479,13.5217763 17.227664,14.2391424 C17.227664,14.2391424 17.4111626,13.3261255 17.7169744,13.0652373 C17.7169744,13.0652373 16.9829802,12.2826339 16.7994816,11.4347932 C16.6159831,10.5217763 16.0654874,10.7826034 16.0043021,10 C15.9431168,9.21739662 16.5547978,7 16.5547978,7 L17.900473,8.43479324 L18.8179657,8.69568142 L19.490832,8.17402735 Z" id="Shape" fill="#F26F5A"></path>
            <path d="M15.3272709,16.8730186 C15.3272709,16.9365093 15.3272709,16.9365093 15.3818331,16.9365093 L15.4363952,17 L18,17 L17.5636559,14.2073007 C17.5636559,14.0803788 17.4545826,13.9533973 17.3454583,14.016888 L15.1636354,14.5246353 C15.0545622,14.5246353 15,14.6515573 15,14.8419699 L15.3272709,16.8730186 Z" id="SVGCleanerId_0" fill="#344A5E"></path>
            <path d="M15.3272709,16.8730186 C15.3272709,16.9365093 15.3272709,16.9365093 15.3818331,16.9365093 L15.4363952,17 L18,17 L17.5636559,14.2073007 C17.5636559,14.0803788 17.4545826,13.9533973 17.3454583,14.016888 L15.1636354,14.5246353 C15.0545622,14.5246353 15,14.6515573 15,14.8419699 L15.3272709,16.8730186 Z" id="SVGCleanerId_0_1_" fill="#344A5E"></path>
            <path d="M15.3461518,16 L18,16 L17.6538482,14.1499988 C17.6538482,14.0500152 17.5384823,14 17.4230624,14 L15.1730759,14.3500129 C15.05771,14.3500129 15,14.4499965 15,14.550027 L15.3461518,16 Z" id="Shape" fill="#425A6B"></path>
            <g id="Group" transform="translate(16.000000, 0.000000)" fill="#F26F5A">
                <path d="M5.97538356,5.00019455 C5.97538356,5.00019455 6.17264384,6.05854086 5.90960959,6.9301751 C5.64657534,7.80175097 5.51508904,8.11307393 5.51508904,8.73560311 C5.58086301,9.35819066 5.38360274,10.416537 5.18634247,11.1636187 C4.92330822,11.9107004 5.51508904,12.5955058 4.72604795,13.4671401 C4.72604795,13.4671401 5.44931507,12.9068288 5.44931507,11.8484825 C5.44931507,11.8484825 5.58080137,12.9068288 5.12056849,13.6539105 C4.59456164,14.4009922 4.4630137,14.5877626 4.4630137,14.9613035 C4.4630137,14.9613035 5.18628082,14.338716 5.71234932,14.2142218 C6.23835616,14.0897276 7.42191781,12.4087938 7.55346575,11.5994358 C7.75072603,10.7278599 7.9479863,9.73173152 8.21102055,9.10914397 C8.47405479,8.54883268 8.7370274,8.11301556 8.93428767,7.17916342 C9.13154795,6.24531128 8.6055411,5.685 8.27673288,4.56437743 C7.9479863,3.44375486 7.09317123,2.19863813 7.09317123,2.19863813 L5.90960959,1.94959144 L5.18634247,3.25698444 C5.18634247,3.2570428 5.90960959,3.87957198 5.97538356,5.00019455 Z" id="Shape"></path>
                <path d="M0.715130137,4.00412451 C0.78090411,3.2570428 1.50417123,2.69673152 2.29321233,2.82122568 C2.4904726,2.88350195 2.81921918,2.88350195 3.08225342,3.00799611 C4.00278082,3.19476654 4.92336986,3.63058366 5.12063014,4.75120623 L5.44937671,4.68892996 C5.44937671,4.68892996 5.44937671,3.44381323 5.77812329,2.94571984 C6.04115753,2.44768482 7.15894521,2.2609144 7.15894521,2.2609144 C7.15894521,2.2609144 6.23841781,0.268715953 4.79182192,0.0196692607 C3.34522603,-0.167101167 1.63565753,1.01579767 0.912390411,1.88737354 C0.254835616,2.69673152 0.0575753425,3.3192607 0.0575753425,3.94184825 C0.0575753425,4.5644358 0.649356164,6.74340467 0.715130137,7.17922179 C0.78090411,7.61503891 0.715130137,7.67725681 0.583643836,8.48661479 C0.452157534,9.29597276 0.517869863,10.2920428 0.715130137,9.85628405 C0.715130137,9.79400778 0.78090411,8.61116732 1.17542466,7.80180934 C1.56994521,6.99245136 1.63571918,6.93023346 1.56994521,6.43214008 C1.50417123,5.93404669 0.715130137,4.19089494 0.715130137,4.19089494 C0.715130137,4.19089494 0.715130137,4.19089494 0.715130137,4.00412451 Z" id="Shape"></path>
            </g>
            <g id="Group" transform="translate(15.000000, 16.000000)" fill="#FFE1B4">
                <path d="M5.96954286,2.53602952 L5.54285714,3.98447232 C5.54285714,3.98447232 4.38474286,3.16575646 4.20188571,3.10281919 C4.01902857,3.03982288 3.22662857,2.9138893 3.04377143,2.9138893 C2.79994286,2.9138893 2.06851429,2.85089299 2.06851429,2.85089299 C2.06851429,2.85089299 1.51994286,2.78789668 1.2152,2.47303321 C0.910457143,2.22110701 0.118057143,1.78030996 0.0570857143,1.59138007 C-0.00388571429,1.46544649 0.0570857143,1.40245018 0.0570857143,1.40245018 C-0.0648,1.2135203 0.239942857,1.15052399 0.239942857,1.15052399 C0.239942857,1.15052399 0.239942857,1.15052399 0.300914286,1.15052399 C0.4228,1.2135203 0.666628571,1.27645756 0.971371429,1.46538745 C1.45897143,1.65431734 2.1904,1.71731365 2.25137143,1.71731365 C2.37325714,1.71731365 2.43422857,1.46538745 2.37325714,1.40245018 C2.31228571,1.33945387 1.58085714,0.646730627 1.58085714,0.646730627 C1.45897143,0.268870849 1.8856,0.331867159 1.8856,0.331867159 C1.8856,0.331867159 2.31228571,0.583793358 2.55605714,0.772723247 C2.67794286,0.835719557 2.73891429,0.898656827 2.79988571,0.961653137 C2.86085714,1.02464945 2.98274286,1.02464945 3.04371429,1.02464945 C3.1656,1.02464945 3.22657143,0.898715867 3.22657143,0.898715867 C3.1656,0.835719557 2.86085714,0.835719557 2.86085714,0.835719557 L2.79988571,0.835719557 L2.678,0.205933579 L2.92182857,0.205933579 C3.16565714,0.205933579 3.59228571,0.331867159 3.59228571,0.331867159 C3.59228571,0.331867159 3.83611429,0.457800738 4.07988571,0.772723247 C4.32371429,1.08758672 4.38462857,1.40250923 4.38462857,1.40250923 L5.11605714,1.84336531 L5.96954286,2.53602952 Z" id="Shape"></path>
            </g>
            <path d="M27.7631663,14.7506638 C27.5840168,15.5540239 27.0465681,19.3853223 26.9271537,19.8179097 C26.8674185,20.0032961 26.7480041,20.1886824 26.6285898,20.4358835 C26.4494402,20.7448414 26.1508763,21.0538573 25.9119915,20.9920425 C25.6731068,20.9302278 23.7024616,20.4976983 22.0901155,20.1269256 C21.9707012,20.0651108 21.7915516,20.0651108 21.6720812,20.0651108 C20.7165982,19.8797245 20,19.6943382 20,19.6943382 C20,19.6943382 20.3582991,19.5707666 20.4180343,19.1381791 C20.5374487,18.7055917 20.955483,17.3461305 20.7763334,16.913543 C20.7763334,16.913543 21.2540469,17.0371146 21.6123461,17.1607441 C21.7317604,17.2225589 21.7914956,17.2225589 21.8512308,17.2843157 C21.910966,17.3461305 22.0303804,17.3461305 22.1497947,17.4078873 C22.4483587,17.4697021 22.866393,17.5314589 23.1052777,17.5932736 C23.4038417,17.5932736 24.4190598,17.9022316 24.4190598,17.9022316 C24.4190598,17.9022316 24.5384742,16.9134851 24.478795,16.2955692 C24.4190598,15.6775955 24.478795,13.0204299 24.8370941,12.2788845 C25.434278,8.756544 26.6285898,9.0037451 26.6285898,9.0037451 C28.1812006,9.43621667 28.1812006,13.1439435 27.7631663,14.7506638 Z" id="Shape" fill="#50E377"></path>
            <path d="M8.12284132,7 L8.59263841,6.88341751 C8.59263841,6.88341751 8.32417395,6.12549471 8.59263841,5.83401117 C8.86110288,5.54252763 8.86110288,5.54252763 8.86110288,5.54252763 C8.86110288,5.54252763 8.25710502,4.3765388 9.19663628,4.31822023 C10.1361675,4.25990166 11.2770943,4.8429234 11.8139604,4.66802234 C12.3508264,4.49312128 12.6192908,4.02673668 12.6192908,4.02673668 C12.6192908,4.02673668 13.1561569,3.85183563 12.9548242,3.38545103 C12.7534916,2.91906643 11.9481611,1.63644045 10.0690357,1.11173728 C8.2570421,0.645352681 6.91484559,1.75302294 6.37791666,2.33604468 C5.90811957,2.91906643 5.84105064,4.31827488 6.37791666,5.48426371 C6.37791666,5.48426371 7.51878054,5.65916477 7.78724501,6.18386794 C8.12284132,6.65019789 8.12284132,7 8.12284132,7 Z" id="Shape" fill="#333333"></path>
            <path d="M7.83458618,6 C8.15254862,6.5333125 7.99353014,7 7.51662375,7 C7.03971736,7 6.40386701,6.5333125 6.16541382,6 C5.84745138,5.4666875 6.00646986,5 6.48337625,5 C6.96028264,5 7.51669827,5.466625 7.83458618,6 Z" id="Shape" fill="#EDBE85"></path>
            <path d="M9,9.46426598 C9,9.46426598 8.34998945,9.3035508 7.89999297,10 L7,7.74998744 C7,7.74998744 7.14999883,7.16071518 7.39998125,7 C7.40002812,7.05353825 7.9500082,8.6071016 9,9.46426598 Z" id="Shape" fill="#F3F3F3"></path>
            <path d="M13.2696389,25 C13.2696389,25 13.3293854,20.7251922 12.9710184,19.2595503 C12.6126514,17.8549959 12.7918349,15.0458299 12.2542844,13.9465985 C11.716734,12.8473671 11,10.7710221 11,10.7710221 L11.0597465,9.61070319 C11.2986765,9.42749796 11.5375505,9.18320523 11.597297,9 L11.358367,10.2213491 L11.716734,10.3434669 C11.836171,10.4045544 11.955664,10.4655846 11.955664,10.5877596 C12.075101,11.0152576 12.4334679,11.992314 12.5529609,12.4198119 C12.7321444,12.9694276 12.9113279,14.373982 13.0307649,14.7403925 C13.0905114,15.0457154 13.9864289,18.4655846 13.9864289,19.6258463 C14.0461194,20.7251922 13.9266264,23.4122404 13.2696389,25 Z" id="Shape" fill="#333333"></path>
            <path d="M12.3571393,20 L10.696399,20 C10.5892723,20 10.4820953,19.8868115 10.4285571,19.7735699 L10,17 L13,17 L12.5714429,19.7735699 C12.6250314,19.8868115 12.5179047,20 12.3571393,20 Z" id="Shape" fill="#E6646E"></path>
            <ellipse id="Oval" fill="#F05640" cx="11.5" cy="16.5" rx="1.5" ry="1"></ellipse>
            <ellipse id="Oval" fill="#CED6E0" cx="11.5" cy="16.5" rx="1.5" ry="1"></ellipse>
            <path d="M7.15000202,7 C7.15000202,7 6.89664908,7.24780663 7.02335524,7.80532798 C7.15000202,8.36284933 7.84670778,9.04424496 8.29000121,10.8407414 C8.73335402,12.6371797 9.4300004,15.4867526 9.62000027,16.6017954 C9.74664705,17.7168381 10,21 10,21 C10,21 9.4300004,17.9645866 9.11335375,17.1593167 C8.7967071,16.3539887 7.34000189,13.3186334 7.15000202,12.6991459 C6.96000216,12.0796584 6.26335578,10.28322 6.26335578,10.28322 L6.89670845,10.0973796 L6.26335578,9.60182439 C6.26335578,9.60182439 6.07335591,8.54874786 6.01000283,8.36290741 C5.94664975,8.17706696 6.2000027,7.92926033 6.32664948,7.74341988 C6.39000256,7.6814537 6.89664908,7.06196618 7.15000202,7 Z" id="Shape" fill="#333333"></path>
            <path d="M7.53027558,19.7111826 C7.53027558,19.7111826 8.67028079,19.8440664 9.11363594,19.6447096 C9.55699109,19.4453527 9.62028513,18.5814523 10.443642,18.3156847 C10.8236438,18.1828009 11.2036455,18.1163278 11.4569998,18.0498548 C11.7103541,17.9833817 11.963649,17.9833817 12.2170032,18.0498548 L13.230361,18.2492116 C13.4203619,18.3156847 13.6103627,18.4485685 13.6103627,18.6479253 C13.6103627,18.7808091 13.5470093,18.8472822 13.4203619,18.8472822 C13.4203619,18.8472822 13.9903645,18.9137552 13.9903645,19.1795228 C14.0537179,19.5117635 13.8003636,19.5782365 13.3570084,19.5117635 C12.9770067,19.4452904 12.2170032,19.5117635 12.2170032,19.5117635 L11.2669989,19.7111203 L11.5203532,19.7111203 C11.5203532,19.7111203 12.1537092,19.5782365 12.6603584,19.6446473 C13.1670076,19.7111203 13.4837153,19.7111203 13.4203619,20.043361 C13.3570084,20.3091909 13.230361,20.3091909 12.9137127,20.3091909 C12.6603584,20.3091909 12.1537092,20.4420747 11.9637083,20.4420747 C11.9637083,20.4420747 12.7237118,20.3091909 12.7870652,20.5749585 C12.8504186,20.8407884 12.4070635,21.0401452 12.1537092,21.0401452 C11.9003549,21.1066183 11.3937057,21.173029 11.2037049,21.3723859 C11.2037049,21.3723859 10.5070548,21.9039834 9.6203445,21.9704564 C8.7336342,22.0369295 7.02368577,21.9704564 7.02368577,21.9704564 C7.02368577,21.9704564 6.83362553,20.50861 7.53027558,19.7111826 Z" id="Shape" fill="#F0C087"></path>
            <path d="M5.2075016,15.5098764 C5.2075016,15.5098764 4.55805363,17.6320976 4.16839703,17.8817294 C4.16839703,17.8817294 3.77874042,18.4434886 3.58391212,18.6931789 C3.38908382,18.9428692 3.38908382,19.1301223 3.71377736,19.192501 C3.97356873,19.2549382 4.75288193,19.192501 4.88274717,19.3797541 C4.88274717,19.3797541 5.53219514,19.3797541 5.92185174,19.5670072 C6.31150835,19.8166975 7.54544122,19.4421913 8,19.5670072 C8,19.5670072 6.96089543,20.5032726 8,23 C8,23 2.86950109,22.1261718 2.34997925,22.1261718 C1.83045741,22.1261718 1.18100944,22.0637346 0.661487598,21.6892284 C0.141965754,21.252285 -0.0528625474,20.3160195 0.0120396306,19.6918816 C0.0769418086,19.0677436 0.531561474,16.9455224 0.596524536,16.6958321 C0.661487598,16.4461419 1.11604638,14.573611 1.11604638,14.573611 C1.11604638,14.573611 0.661426714,11.4527456 2.41488143,10.3292271 C4.16833614,9.20570855 6.31144746,11.2030553 6.2464844,12.6387014 C6.18164311,14.0118517 5.2075016,15.5098764 5.2075016,15.5098764 Z" id="Shape" fill="#333333"></path>
            <g id="Group" transform="translate(11.000000, 19.000000)" fill="#F5B54C">
                <path d="M1.42281818,0.909785714 C1.42281818,0.909785714 1.35006818,0.909785714 1.27738636,1.40978571 C1.20463636,1.40978571 1.20463636,1.40978571 1.13195455,1.40978571 C1.05920455,1.40978571 1.05920455,1.40978571 0.986522727,1.40978571 L0.913772727,1.40978571 L0.841022727,1.40978571 C0.768272727,1.40978571 0.768272727,1.40978571 0.695590909,1.40978571 C0.622840909,1.40978571 0.622840909,1.40978571 0.622840909,1.40978571 L0.550090909,1.40978571 L0.622840909,1.40978571 C0.695590909,1.40978571 0.695590909,1.40978571 0.768272727,0.909785714 C0.841022727,0.909785714 0.841022727,0.909785714 0.913704545,0.909785714 L0.986454545,0.909785714 L1.05920455,0.909785714 C1.13195455,0.909785714 1.13195455,0.909785714 1.20463636,0.909785714 C1.42281818,0.909785714 1.42281818,0.909785714 1.42281818,0.909785714 Z" id="Shape"></path>
            </g>
        </g>
    </g>
</svg>