<?xml version="1.0" encoding="UTF-8"?>
<svg width="25px" height="30px" viewBox="0 0 25 30" version="1.1" xmlns="http://www.w3.org/2000/svg" xmlns:xlink="http://www.w3.org/1999/xlink">
    <!-- Generator: Sketch 48.2 (47327) - http://www.bohemiancoding.com/sketch -->
    <title>015-apple-1</title>
    <desc>Created with Sketch.</desc>
    <defs></defs>
    <g id="coverr_hp_R3" stroke="none" stroke-width="1" fill="none" fill-rule="evenodd" transform="translate(-746.000000, -869.000000)">
        <g id="015-apple-1" transform="translate(746.000000, 869.000000)" fill="#9B9B9B" fill-rule="nonzero">
            <path d="M1.31167969,11.0281055 C-1.22455078,15.4292578 0.387773437,22.1082422 3.19242187,26.1579492 C4.59240234,28.1825977 6.00978516,30 7.95111328,30 C7.98767578,30 8.02441406,29.9992969 8.06197266,29.997832 C8.97404297,29.9614453 9.63316406,29.6806055 10.2704883,29.4092578 C10.9860352,29.1043359 11.725957,28.7891016 12.886582,28.7891016 C13.9906641,28.7891016 14.6953125,29.0941406 15.376875,29.3889844 C16.0484766,29.6795508 16.7402344,29.9801367 17.7623437,29.9609766 C19.9491797,29.9202539 21.2917969,27.9591211 22.4763867,26.229082 C23.7123633,24.4226953 24.3325195,22.6688086 24.5417578,21.9986133 L24.5501953,21.9719531 C24.5899219,21.852832 24.5336719,21.7228125 24.4195898,21.6703711 C24.4163672,21.6689063 24.4048242,21.6641016 24.4014844,21.6626953 C24.0165234,21.5051953 20.6385937,20.0067188 20.6030859,15.9223828 C20.5700391,12.6041016 23.1370312,10.846875 23.6518945,10.5283594 L23.675918,10.513418 C23.7317578,10.4775 23.7706641,10.4205469 23.7837305,10.3554492 C23.7970312,10.2904102 23.7831445,10.2227344 23.7458789,10.1680664 C21.9740039,7.57505859 19.2581836,7.18429688 18.1648828,7.13730469 C18.0062109,7.12148438 17.8423828,7.11351563 17.6779102,7.11351563 C16.3938281,7.11351563 15.1635352,7.59855469 14.1751758,7.98826172 C13.4929687,8.25726563 12.90375,8.48958984 12.4972266,8.48958984 C12.0405469,8.48958984 11.4479297,8.25439453 10.7616797,7.98216797 C9.84398437,7.61794922 8.80382813,7.20521484 7.70267578,7.20521484 C7.67642578,7.20521484 7.65052734,7.20550781 7.62509766,7.20597656 C5.06472656,7.24359375 2.64544922,8.70837891 1.31167969,11.0281055 Z" id="Shape"></path>
            <path d="M18.1670508,0.00017578125 C16.6164844,0.0633398437 14.7567187,1.01771484 13.6449023,2.31984375 C12.7001367,3.41431641 11.7772266,5.23910156 12.0204492,7.07841797 C12.0356836,7.19349609 12.1293164,7.28232422 12.2450977,7.29128906 C12.3496289,7.29943359 12.4566797,7.30359375 12.5629102,7.30371094 C14.0790234,7.30371094 15.7144922,6.465 16.8312891,5.11447266 C18.0067969,3.68841797 18.6011719,1.85835937 18.4214063,0.219082031 C18.4074609,0.0905859375 18.2942578,-0.0048046875 18.1670508,0.00017578125 Z" id="Shape"></path>
        </g>
    </g>
</svg>