<?xml version="1.0" encoding="UTF-8"?>
<svg width="28px" height="30px" viewBox="0 0 28 30" version="1.1" xmlns="http://www.w3.org/2000/svg" xmlns:xlink="http://www.w3.org/1999/xlink">
    <!-- Generator: Sketch 48.2 (47327) - http://www.bohemiancoding.com/sketch -->
    <title>005-city</title>
    <desc>Created with Sketch.</desc>
    <defs></defs>
    <g id="Page-1" stroke="none" stroke-width="1" fill="none" fill-rule="evenodd">
        <g id="005-city" fill-rule="nonzero">
            <path d="M21.1246058,7.49976563 C20.7833195,7.49976563 20.5055851,7.77990234 20.5055851,8.12501953 L20.5055851,29.3746875 C20.5055851,29.7198633 20.7833195,29.9990625 21.1246058,29.9990625 L27.3221328,29.9990625 C27.6633029,29.9990625 27.9410373,29.7198047 27.9410373,29.3746875 L27.9410373,11.8749609 C27.9409793,10.3616016 26.5161162,7.49976563 21.1246058,7.49976563 Z" id="Shape" fill="#ACB8BC"></path>
            <g id="Group" transform="translate(14.290456, 0.000000)" fill="#333333">
                <path d="M6.83414938,7.49976562 C6.49286307,7.49976562 6.21512863,7.77990234 6.21512863,8.12501953 L6.21512863,11.8749609 L13.6505809,11.8749609 C13.6505228,10.3616016 12.2256598,7.49976562 6.83414938,7.49976562 Z" id="Shape"></path>
                <path d="M0.638539419,5.00044922 C0.296323651,5.00044922 0.0190539419,4.7203125 0.0190539419,4.37513672 L0.0190539419,0.625253906 C0.0190539419,0.280078125 0.296381743,0 0.638539419,0 C0.980697095,0 1.25756017,0.280078125 1.25756017,0.625253906 L1.25756017,4.37513672 C1.25756017,4.72025391 0.980755187,5.00044922 0.638539419,5.00044922 Z" id="Shape"></path>
            </g>
            <path d="M17.3632531,3.74988281 L12.4506473,3.74988281 C12.1084315,3.74988281 11.8307552,4.03001953 11.8307552,4.37513672 L11.8307552,8.12501953 C11.8307552,8.47019531 12.1084896,8.75033203 12.4506473,8.75033203 L17.3632531,8.75033203 C17.7045394,8.75033203 17.9822739,8.47019531 17.9822739,8.12501953 L17.9822739,4.37513672 C17.982332,4.03001953 17.7045394,3.74988281 17.3632531,3.74988281 Z" id="Shape" fill="#C5C5C5"></path>
            <path d="M18.646722,29.9990625 L11.2112116,29.9990625 C10.8690539,29.9990625 10.5917261,29.7198047 10.5917261,29.3746875 L10.5917261,8.12501953 C10.5917261,7.77990234 10.8689959,7.49976562 11.2112116,7.49976562 L18.646722,7.49976562 C18.9889378,7.49976562 19.2657427,7.77990234 19.2657427,8.12501953 L19.2657427,29.3746875 C19.2657427,29.7198633 18.9889959,29.9990625 18.646722,29.9990625 Z" id="Shape" fill="#C5C5C5"></path>
            <g id="Group" transform="translate(13.012448, 9.960938)" fill="#CFDCE5">
                <path d="M0.677170124,0.0390820313 C0.334954357,0.0390820313 0.0576846473,0.319160156 0.0576846473,0.664335937 L0.0576846473,20.038125 L1.29706224,20.038125 L1.29706224,0.664335937 C1.29706224,0.319160156 1.0193278,0.0390820313 0.677170124,0.0390820313 Z" id="Shape"></path>
                <path d="M3.15639004,0.0390820313 C2.8133029,0.0390820313 2.53562656,0.319160156 2.53562656,0.664335937 L2.53562656,20.038125 L3.77541079,20.038125 L3.77541079,0.664335937 C3.7753527,0.319160156 3.49767635,0.0390820313 3.15639004,0.0390820313 Z" id="Shape"></path>
            </g>
            <rect id="Rectangle-path" fill="#CFDCE5" x="11.8309876" y="5.00050781" width="6.15128631" height="1.24962891"></rect>
            <g id="Group" transform="translate(22.365145, 14.355469)" fill="#BAC6CC">
                <path d="M3.1053278,1.269375 L0.627502075,1.269375 C0.285286307,1.269375 0.00755186722,0.989238281 0.00755186722,0.6440625 C0.00755186722,0.298886719 0.285286307,0.0196875 0.627502075,0.0196875 L3.1053278,0.0196875 C3.44841494,0.0196875 3.72527801,0.298945312 3.72527801,0.6440625 C3.72527801,0.989179688 3.44835685,1.269375 3.1053278,1.269375 Z" id="Shape"></path>
                <path d="M3.1053278,3.76957031 L0.627502075,3.76957031 C0.285286307,3.76957031 0.00755186722,3.48943359 0.00755186722,3.14425781 C0.00755186722,2.79914062 0.285286307,2.51900391 0.627502075,2.51900391 L3.1053278,2.51900391 C3.44841494,2.51900391 3.72527801,2.79914062 3.72527801,3.14425781 C3.72527801,3.48943359 3.44835685,3.76957031 3.1053278,3.76957031 Z" id="Shape"></path>
                <path d="M3.1053278,6.26888672 L0.627502075,6.26888672 C0.285286307,6.26888672 0.00755186722,5.98962891 0.00755186722,5.64451172 C0.00755186722,5.29939453 0.285286307,5.01925781 0.627502075,5.01925781 L3.1053278,5.01925781 C3.44841494,5.01925781 3.72527801,5.29939453 3.72527801,5.64451172 C3.72527801,5.98962891 3.44835685,6.26888672 3.1053278,6.26888672 Z" id="Shape"></path>
                <path d="M3.1053278,8.76914063 L0.627502075,8.76914063 C0.285286307,8.76914063 0.00755186722,8.48988281 0.00755186722,8.14382813 C0.00755186722,7.79865234 0.285286307,7.51945313 0.627502075,7.51945313 L3.1053278,7.51945313 C3.44841494,7.51945313 3.72527801,7.79871094 3.72527801,8.14382813 C3.72527801,8.48988281 3.44835685,8.76914063 3.1053278,8.76914063 Z" id="Shape"></path>
                <path d="M3.1053278,11.2693359 L0.627502075,11.2693359 C0.285286307,11.2693359 0.00755186722,10.9891992 0.00755186722,10.644082 C0.00755186722,10.2989062 0.285286307,10.0187695 0.627502075,10.0187695 L3.1053278,10.0187695 C3.44841494,10.0187695 3.72527801,10.2989062 3.72527801,10.644082 C3.72527801,10.9891992 3.44835685,11.2693359 3.1053278,11.2693359 Z" id="Shape"></path>
                <path d="M3.1053278,13.7686523 L0.627502075,13.7686523 C0.285286307,13.7686523 0.00755186722,13.4894531 0.00755186722,13.1443359 C0.00755186722,12.7992188 0.285286307,12.5190234 0.627502075,12.5190234 L3.1053278,12.5190234 C3.44841494,12.5190234 3.72527801,12.7991602 3.72527801,13.1443359 C3.72527801,13.4895117 3.44835685,13.7686523 3.1053278,13.7686523 Z" id="Shape"></path>
            </g>
            <path d="M22.3590456,10.2874219 C23.4682407,10.6124414 24.1960664,11.1461719 24.5264896,11.8749609 L25.8126888,11.8749609 C25.8126888,11.8081055 25.8026971,11.7394922 25.779112,11.6726367 C24.799751,8.78326172 20.679917,8.75033203 20.5056432,8.75033203 L20.5056432,10.0000195 C20.5146473,10.0000195 21.3886888,10.0036523 22.3590456,10.2874219 Z" id="Shape" fill="#656D78"></path>
            <path d="M8.73292116,13.1245898 L1.29741079,13.1245898 C0.955253112,13.1245898 0.677518672,13.4047266 0.677518672,13.7499023 L0.677518672,29.3746875 C0.677518672,29.7198633 0.955253112,29.9990625 1.29741079,29.9990625 L8.73292116,29.9990625 C9.07507884,29.9990625 9.35240664,29.7198047 9.35240664,29.3746875 L9.35240664,13.7499023 C9.35234855,13.4047266 9.07507884,13.1245898 8.73292116,13.1245898 Z" id="Shape" fill="#CFDCE5"></path>
            <g id="Group" transform="translate(2.497925, 16.347656)" fill="#BAC6CC">
                <path d="M0.658406639,2.40175781 C0.316248963,2.40175781 0.0385145228,2.1225 0.0385145228,1.77738281 L0.0385145228,0.683378906 C0.0385145228,0.338203125 0.316248963,0.0580664062 0.658406639,0.0580664062 C1.00062241,0.0580664062 1.27789212,0.338203125 1.27789212,0.683378906 L1.27789212,1.77738281 C1.27783402,2.1225 1.00062241,2.40175781 0.658406639,2.40175781 Z" id="Shape"></path>
                <path d="M2.51721162,2.40175781 C2.17505394,2.40175781 1.8973195,2.1225 1.8973195,1.77738281 L1.8973195,0.683378906 C1.8973195,0.338203125 2.17505394,0.0580664062 2.51721162,0.0580664062 C2.85942739,0.0580664062 3.1366971,0.338203125 3.1366971,0.683378906 L3.1366971,1.77738281 C3.1366971,2.1225 2.85948548,2.40175781 2.51721162,2.40175781 Z" id="Shape"></path>
                <path d="M4.37613278,2.40175781 C4.03391701,2.40175781 3.75618257,2.1225 3.75618257,1.77738281 L3.75618257,0.683378906 C3.75618257,0.338203125 4.03391701,0.0580664062 4.37613278,0.0580664062 C4.71829046,0.0580664062 4.99561826,0.338203125 4.99561826,0.683378906 L4.99561826,1.77738281 C4.99556017,2.1225 4.71829046,2.40175781 4.37613278,2.40175781 Z" id="Shape"></path>
                <path d="M0.658406639,5.52726563 C0.316248963,5.52726563 0.0385145228,5.24712891 0.0385145228,4.90195312 L0.0385145228,3.80794922 C0.0385145228,3.46376953 0.316248963,3.18363281 0.658406639,3.18363281 C1.00062241,3.18363281 1.27789212,3.46376953 1.27789212,3.80794922 L1.27789212,4.90195312 C1.27783402,5.24712891 1.00062241,5.52726563 0.658406639,5.52726563 Z" id="Shape"></path>
                <path d="M2.51721162,5.52726563 C2.17505394,5.52726563 1.8973195,5.24712891 1.8973195,4.90195312 L1.8973195,3.80794922 C1.8973195,3.46376953 2.17505394,3.18363281 2.51721162,3.18363281 C2.85942739,3.18363281 3.1366971,3.46376953 3.1366971,3.80794922 L3.1366971,4.90195312 C3.1366971,5.24712891 2.85948548,5.52726563 2.51721162,5.52726563 Z" id="Shape"></path>
                <path d="M4.37613278,5.52726563 C4.03391701,5.52726563 3.75618257,5.24712891 3.75618257,4.90195312 L3.75618257,3.80794922 C3.75618257,3.46376953 4.03391701,3.18363281 4.37613278,3.18363281 C4.71829046,3.18363281 4.99561826,3.46376953 4.99561826,3.80794922 L4.99561826,4.90195312 C4.99556017,5.24712891 4.71829046,5.52726563 4.37613278,5.52726563 Z" id="Shape"></path>
                <path d="M0.658406639,8.65189453 C0.316248963,8.65189453 0.0385145228,8.37263672 0.0385145228,8.02658203 L0.0385145228,6.93351563 C0.0385145228,6.58833984 0.316248963,6.30820312 0.658406639,6.30820312 C1.00062241,6.30820312 1.27789212,6.58833984 1.27789212,6.93351563 L1.27789212,8.02658203 C1.27783402,8.37263672 1.00062241,8.65189453 0.658406639,8.65189453 Z" id="Shape"></path>
                <path d="M2.51721162,8.65189453 C2.17505394,8.65189453 1.8973195,8.37263672 1.8973195,8.02658203 L1.8973195,6.93351563 C1.8973195,6.58833984 2.17505394,6.30820312 2.51721162,6.30820312 C2.85942739,6.30820312 3.1366971,6.58833984 3.1366971,6.93351563 L3.1366971,8.02658203 C3.1366971,8.37263672 2.85948548,8.65189453 2.51721162,8.65189453 Z" id="Shape"></path>
                <path d="M4.37613278,8.65189453 C4.03391701,8.65189453 3.75618257,8.37263672 3.75618257,8.02658203 L3.75618257,6.93351563 C3.75618257,6.58833984 4.03391701,6.30820312 4.37613278,6.30820312 C4.71829046,6.30820312 4.99561826,6.58833984 4.99561826,6.93351563 L4.99561826,8.02658203 C4.99556017,8.37263672 4.71829046,8.65189453 4.37613278,8.65189453 Z" id="Shape"></path>
                <path d="M0.658406639,11.7764648 C0.316248963,11.7764648 0.0385145228,11.4972656 0.0385145228,11.1521484 L0.0385145228,10.0580859 C0.0385145228,9.71291016 0.316248963,9.43277344 0.658406639,9.43277344 C1.00062241,9.43277344 1.27789212,9.71291016 1.27789212,10.0580859 L1.27789212,11.1521484 C1.27783402,11.4973242 1.00062241,11.7764648 0.658406639,11.7764648 Z" id="Shape"></path>
                <path d="M2.51721162,11.7764648 C2.17505394,11.7764648 1.8973195,11.4972656 1.8973195,11.1521484 L1.8973195,10.0580859 C1.8973195,9.71291016 2.17505394,9.43277344 2.51721162,9.43277344 C2.85942739,9.43277344 3.1366971,9.71291016 3.1366971,10.0580859 L3.1366971,11.1521484 C3.1366971,11.4973242 2.85948548,11.7764648 2.51721162,11.7764648 Z" id="Shape"></path>
                <path d="M4.37613278,11.7764648 C4.03391701,11.7764648 3.75618257,11.4972656 3.75618257,11.1521484 L3.75618257,10.0580859 C3.75618257,9.71291016 4.03391701,9.43277344 4.37613278,9.43277344 C4.71829046,9.43277344 4.99561826,9.71291016 4.99561826,10.0580859 L4.99561826,11.1521484 C4.99556017,11.4973242 4.71829046,11.7764648 4.37613278,11.7764648 Z" id="Shape"></path>
            </g>
            <path d="M9.35234855,14.3751562 L0.677518672,14.3751562 C0.335302905,14.3751562 0.058033195,14.0950195 0.058033195,13.7499023 C0.058033195,13.4047266 0.335302905,13.1245898 0.677518672,13.1245898 L9.35240664,13.1245898 C9.69462241,13.1245898 9.97189212,13.4047266 9.97189212,13.7499023 C9.97183402,14.0949609 9.69456432,14.3751562 9.35234855,14.3751562 Z" id="Shape" fill="#333333"></path>
        </g>
    </g>
</svg>