<?xml version="1.0" encoding="UTF-8"?>
<svg width="17px" height="30px" viewBox="0 0 17 30" version="1.1" xmlns="http://www.w3.org/2000/svg" xmlns:xlink="http://www.w3.org/1999/xlink">
    <!-- Generator: Sketch 48.2 (47327) - http://www.bohemiancoding.com/sketch -->
    <title>smartphone</title>
    <desc>Created with Sketch.</desc>
    <defs></defs>
    <g id="coverr_hp_R3" stroke="none" stroke-width="1" fill="none" fill-rule="evenodd" transform="translate(-1063.000000, -870.000000)">
        <g id="smartphone" transform="translate(1063.000000, 870.000000)" fill-rule="nonzero">
            <g id="Group">
                <path d="M14.9831818,30 L2.0070303,30 C1.0380303,30 0.252939394,29.2112069 0.252939394,28.2387931 L0.252939394,1.7612069 C0.252939394,0.788793103 1.0380303,0 2.0070303,0 L14.9831818,0 C15.9521818,0 16.7372727,0.788793103 16.7372727,1.7612069 L16.7372727,28.2382759 C16.7377879,29.2112069 15.9521818,30 14.9831818,30 Z" id="Shape" fill="#333333"></path>
                <rect id="Rectangle-path" fill="#CFDCE5" x="0.252939394" y="3.10344828" width="16.4848485" height="20.6896552"></rect>
                <ellipse id="Oval" fill="#424C5B" cx="8.49536364" cy="26.8965517" rx="1.54545455" ry="1.55172414"></ellipse>
                <path d="M8.49536364,2.06896552 L6.43475758,2.06896552 C6.14987879,2.06896552 5.91960606,1.83775862 5.91960606,1.55172414 C5.91960606,1.26568966 6.14987879,1.03448276 6.43475758,1.03448276 L8.49536364,1.03448276 C8.78024242,1.03448276 9.01051515,1.26568966 9.01051515,1.55172414 C9.01051515,1.83775862 8.77972727,2.06896552 8.49536364,2.06896552 Z" id="Shape" fill="#424C5B"></path>
                <path d="M10.5559697,2.06896552 L10.0408182,2.06896552 C9.75593939,2.06896552 9.52566667,1.83775862 9.52566667,1.55172414 C9.52566667,1.26568966 9.75593939,1.03448276 10.0408182,1.03448276 L10.5559697,1.03448276 C10.8408485,1.03448276 11.0711212,1.26568966 11.0711212,1.55172414 C11.0711212,1.83775862 10.8403333,2.06896552 10.5559697,2.06896552 Z" id="Shape" fill="#424C5B"></path>
            </g>
            <path d="M8.75701267,11.2632491 C9.13140973,10.4163715 9.95825155,9.63389219 10.9531664,9.63389219 C12.2927274,9.63389219 13.257505,10.7282769 13.3788266,12.0325383 C13.3788266,12.0325383 13.4445103,12.35647 13.3003925,12.9391591 C13.1041142,13.7328887 12.6431692,14.4381675 12.021106,14.9762432 L8.75739904,17.7802889 L5.4936921,14.9758552 C4.87162887,14.4377795 4.41068387,13.7325007 4.21440553,12.9387711 C4.07028778,12.3560821 4.13597147,12.0321504 4.13597147,12.0321504 C4.25729312,10.727889 5.2220707,9.63350424 6.56163172,9.63350424 C7.55538741,9.63389219 8.3826156,10.4163715 8.75701267,11.2632491 Z" id="Shape" fill="#E6646E"></path>
        </g>
    </g>
</svg>