<?xml version="1.0" encoding="utf-8"?>
<!-- Generator: Adobe Illustrator 23.0.0, SVG Export Plug-In . SVG Version: 6.00 Build 0)  -->
<svg version="1.1" id="Layer_1" xmlns="http://www.w3.org/2000/svg" xmlns:xlink="http://www.w3.org/1999/xlink" x="0px" y="0px"
	 viewBox="0 0 750 1000" style="enable-background:new 0 0 750 1000;" xml:space="preserve">
<style type="text/css">
	.st0{fill:#8E8E8E;}
</style>
<g>
	<circle class="st0" cx="349" cy="447" r="19"/>
	<circle class="st0" cx="402" cy="447" r="19"/>
	<circle class="st0" cx="455" cy="447" r="19"/>
	<circle class="st0" cx="508" cy="447" r="19"/>
	<circle class="st0" cx="137" cy="447" r="19"/>
	<circle class="st0" cx="190" cy="447" r="19"/>
	<circle class="st0" cx="243" cy="447" r="19"/>
	<circle class="st0" cx="296" cy="447" r="19"/>
	<circle class="st0" cx="349" cy="500" r="19"/>
	<circle class="st0" cx="402" cy="500" r="19"/>
	<circle class="st0" cx="455" cy="500" r="19"/>
	<circle class="st0" cx="508" cy="500" r="19"/>
	<circle class="st0" cx="137" cy="500" r="19"/>
	<circle class="st0" cx="190" cy="500" r="19"/>
	<circle class="st0" cx="243" cy="500" r="19"/>
	<circle class="st0" cx="296" cy="500" r="19"/>
	<circle class="st0" cx="137" cy="553" r="19"/>
	<circle class="st0" cx="560" cy="447" r="19"/>
	<circle class="st0" cx="613" cy="447" r="19"/>
	<circle class="st0" cx="560" cy="500" r="19"/>
	<circle class="st0" cx="613" cy="500" r="19"/>
	<circle class="st0" cx="190" cy="553" r="19"/>
</g>
</svg>
