<?xml version="1.0" encoding="utf-8"?>
<!-- Generator: Adobe Illustrator 23.0.0, SVG Export Plug-In . SVG Version: 6.00 Build 0)  -->
<svg version="1.1" id="Layer_1" xmlns="http://www.w3.org/2000/svg" xmlns:xlink="http://www.w3.org/1999/xlink" x="0px" y="0px"
	 viewBox="0 0 750 1000" style="enable-background:new 0 0 750 1000;" xml:space="preserve">
<style type="text/css">
	.st0{fill:#274472;}
</style>
<g>
	<circle class="st0" cx="348" cy="182" r="19"/>
	<circle class="st0" cx="401" cy="182" r="19"/>
	<circle class="st0" cx="454" cy="182" r="19"/>
	<circle class="st0" cx="507" cy="182" r="19"/>
	<circle class="st0" cx="136" cy="182" r="19"/>
	<circle class="st0" cx="189" cy="182" r="19"/>
	<circle class="st0" cx="242" cy="182" r="19"/>
	<circle class="st0" cx="295" cy="182" r="19"/>
	<circle class="st0" cx="348" cy="235" r="19"/>
	<circle class="st0" cx="401" cy="235" r="19"/>
	<circle class="st0" cx="454" cy="235" r="19"/>
	<circle class="st0" cx="507" cy="235" r="19"/>
	<circle class="st0" cx="136" cy="235" r="19"/>
	<circle class="st0" cx="189" cy="235" r="19"/>
	<circle class="st0" cx="242" cy="235" r="19"/>
	<circle class="st0" cx="295" cy="235" r="19"/>
	<circle class="st0" cx="348" cy="288" r="19"/>
	<circle class="st0" cx="136" cy="288" r="19"/>
	<circle class="st0" cx="189" cy="288" r="19"/>
	<circle class="st0" cx="242" cy="288" r="19"/>
	<circle class="st0" cx="295" cy="288" r="19"/>
	<circle class="st0" cx="401" cy="288" r="19"/>
	<circle class="st0" cx="454" cy="288" r="19"/>
	<circle class="st0" cx="507" cy="288" r="19"/>
	<circle class="st0" cx="560" cy="182" r="19"/>
	<circle class="st0" cx="613" cy="182" r="19"/>
	<circle class="st0" cx="560" cy="235" r="19"/>
	<circle class="st0" cx="613" cy="235" r="19"/>
	<circle class="st0" cx="560" cy="288" r="19"/>
	<circle class="st0" cx="613" cy="288" r="19"/>
	<circle class="st0" cx="349" cy="341" r="19"/>
	<circle class="st0" cx="402" cy="341" r="19"/>
	<circle class="st0" cx="455" cy="341" r="19"/>
	<circle class="st0" cx="508" cy="341" r="19"/>
	<circle class="st0" cx="137" cy="341" r="19"/>
	<circle class="st0" cx="190" cy="341" r="19"/>
	<circle class="st0" cx="243" cy="341" r="19"/>
	<circle class="st0" cx="296" cy="341" r="19"/>
	<circle class="st0" cx="349" cy="394" r="19"/>
	<circle class="st0" cx="402" cy="394" r="19"/>
	<circle class="st0" cx="455" cy="394" r="19"/>
	<circle class="st0" cx="508" cy="394" r="19"/>
	<circle class="st0" cx="137" cy="394" r="19"/>
	<circle class="st0" cx="190" cy="394" r="19"/>
	<circle class="st0" cx="243" cy="394" r="19"/>
	<circle class="st0" cx="296" cy="394" r="19"/>
	<circle class="st0" cx="349" cy="447" r="19"/>
	<circle class="st0" cx="137" cy="447" r="19"/>
	<circle class="st0" cx="190" cy="447" r="19"/>
	<circle class="st0" cx="243" cy="447" r="19"/>
	<circle class="st0" cx="296" cy="447" r="19"/>
	<circle class="st0" cx="402" cy="447" r="19"/>
	<circle class="st0" cx="455" cy="447" r="19"/>
	<circle class="st0" cx="508" cy="447" r="19"/>
	<circle class="st0" cx="561" cy="341" r="19"/>
	<circle class="st0" cx="614" cy="341" r="19"/>
	<circle class="st0" cx="561" cy="394" r="19"/>
	<circle class="st0" cx="614" cy="394" r="19"/>
	<circle class="st0" cx="561" cy="447" r="19"/>
	<circle class="st0" cx="614" cy="447" r="19"/>
	<circle class="st0" cx="348" cy="500" r="19"/>
	<circle class="st0" cx="401" cy="500" r="19"/>
	<circle class="st0" cx="454" cy="500" r="19"/>
	<circle class="st0" cx="507" cy="500" r="19"/>
	<circle class="st0" cx="136" cy="500" r="19"/>
	<circle class="st0" cx="189" cy="500" r="19"/>
	<circle class="st0" cx="242" cy="500" r="19"/>
	<circle class="st0" cx="295" cy="500" r="19"/>
	<circle class="st0" cx="348" cy="553" r="19"/>
	<circle class="st0" cx="401" cy="553" r="19"/>
	<circle class="st0" cx="454" cy="553" r="19"/>
	<circle class="st0" cx="507" cy="553" r="19"/>
	<circle class="st0" cx="136" cy="553" r="19"/>
	<circle class="st0" cx="189" cy="553" r="19"/>
	<circle class="st0" cx="242" cy="553" r="19"/>
	<circle class="st0" cx="295" cy="553" r="19"/>
	<circle class="st0" cx="348" cy="606" r="19"/>
	<circle class="st0" cx="136" cy="606" r="19"/>
	<circle class="st0" cx="189" cy="606" r="19"/>
	<circle class="st0" cx="242" cy="606" r="19"/>
	<circle class="st0" cx="295" cy="606" r="19"/>
	<circle class="st0" cx="401" cy="606" r="19"/>
	<circle class="st0" cx="454" cy="606" r="19"/>
	<circle class="st0" cx="507" cy="606" r="19"/>
	<circle class="st0" cx="560" cy="500" r="19"/>
	<circle class="st0" cx="613" cy="500" r="19"/>
	<circle class="st0" cx="560" cy="553" r="19"/>
	<circle class="st0" cx="613" cy="553" r="19"/>
	<circle class="st0" cx="560" cy="606" r="19"/>
	<circle class="st0" cx="613" cy="606" r="19"/>
	<circle class="st0" cx="348" cy="659" r="19"/>
	<circle class="st0" cx="136" cy="659" r="19"/>
	<circle class="st0" cx="189" cy="659" r="19"/>
	<circle class="st0" cx="242" cy="659" r="19"/>
	<circle class="st0" cx="295" cy="659" r="19"/>
	<circle class="st0" cx="401" cy="659" r="19"/>
	<circle class="st0" cx="454" cy="659" r="19"/>
	<circle class="st0" cx="507" cy="659" r="19"/>
	<circle class="st0" cx="560" cy="659" r="19"/>
	<circle class="st0" cx="613" cy="659" r="19"/>
	<circle class="st0" cx="348" cy="712" r="19"/>
	<circle class="st0" cx="401" cy="712" r="19"/>
	<circle class="st0" cx="454" cy="712" r="19"/>
	<circle class="st0" cx="507" cy="712" r="19"/>
	<circle class="st0" cx="136" cy="712" r="19"/>
	<circle class="st0" cx="189" cy="712" r="19"/>
	<circle class="st0" cx="242" cy="712" r="19"/>
	<circle class="st0" cx="295" cy="712" r="19"/>
	<circle class="st0" cx="348" cy="765" r="19"/>
	<circle class="st0" cx="136" cy="765" r="19"/>
	<circle class="st0" cx="189" cy="765" r="19"/>
	<circle class="st0" cx="242" cy="765" r="19"/>
	<circle class="st0" cx="295" cy="765" r="19"/>
	<circle class="st0" cx="401" cy="765" r="19"/>
	<circle class="st0" cx="454" cy="765" r="19"/>
	<circle class="st0" cx="507" cy="765" r="19"/>
	<circle class="st0" cx="560" cy="712" r="19"/>
	<circle class="st0" cx="613" cy="712" r="19"/>
	<circle class="st0" cx="560" cy="765" r="19"/>
	<circle class="st0" cx="613" cy="765" r="19"/>
	<circle class="st0" cx="348" cy="818" r="19"/>
	<circle class="st0" cx="136" cy="818" r="19"/>
	<circle class="st0" cx="189" cy="818" r="19"/>
	<circle class="st0" cx="242" cy="818" r="19"/>
	<circle class="st0" cx="295" cy="818" r="19"/>
</g>
</svg>
