<?xml version="1.0" encoding="utf-8"?>
<!-- Generator: Adobe Illustrator 23.0.0, SVG Export Plug-In . SVG Version: 6.00 Build 0)  -->
<svg version="1.1" id="Layer_1" xmlns="http://www.w3.org/2000/svg" xmlns:xlink="http://www.w3.org/1999/xlink" x="0px" y="0px"
	 viewBox="0 0 750 1000" style="enable-background:new 0 0 750 1000;" xml:space="preserve">
<style type="text/css">
	.st0{fill:#9F4545;}
</style>
<g>
	<circle class="st0" cx="348" cy="421" r="19"/>
	<circle class="st0" cx="401" cy="421" r="19"/>
	<circle class="st0" cx="454" cy="421" r="19"/>
	<circle class="st0" cx="507" cy="421" r="19"/>
	<circle class="st0" cx="136" cy="421" r="19"/>
	<circle class="st0" cx="189" cy="421" r="19"/>
	<circle class="st0" cx="242" cy="421" r="19"/>
	<circle class="st0" cx="295" cy="421" r="19"/>
	<circle class="st0" cx="348" cy="474" r="19"/>
	<circle class="st0" cx="401" cy="474" r="19"/>
	<circle class="st0" cx="454" cy="474" r="19"/>
	<circle class="st0" cx="507" cy="474" r="19"/>
	<circle class="st0" cx="136" cy="474" r="19"/>
	<circle class="st0" cx="189" cy="474" r="19"/>
	<circle class="st0" cx="242" cy="474" r="19"/>
	<circle class="st0" cx="295" cy="474" r="19"/>
	<circle class="st0" cx="348" cy="527" r="19"/>
	<circle class="st0" cx="136" cy="527" r="19"/>
	<circle class="st0" cx="189" cy="527" r="19"/>
	<circle class="st0" cx="242" cy="527" r="19"/>
	<circle class="st0" cx="295" cy="527" r="19"/>
	<circle class="st0" cx="401" cy="527" r="19"/>
	<circle class="st0" cx="454" cy="527" r="19"/>
	<circle class="st0" cx="507" cy="527" r="19"/>
	<circle class="st0" cx="560" cy="421" r="19"/>
	<circle class="st0" cx="613" cy="421" r="19"/>
	<circle class="st0" cx="560" cy="474" r="19"/>
	<circle class="st0" cx="613" cy="474" r="19"/>
	<circle class="st0" cx="560" cy="527" r="19"/>
	<circle class="st0" cx="613" cy="527" r="19"/>
	<circle class="st0" cx="349" cy="580" r="19"/>
	<circle class="st0" cx="402" cy="580" r="19"/>
	<circle class="st0" cx="455" cy="580" r="19"/>
	<circle class="st0" cx="508" cy="580" r="19"/>
	<circle class="st0" cx="137" cy="580" r="19"/>
	<circle class="st0" cx="190" cy="580" r="19"/>
	<circle class="st0" cx="243" cy="580" r="19"/>
	<circle class="st0" cx="296" cy="580" r="19"/>
	<circle class="st0" cx="561" cy="580" r="19"/>
	<circle class="st0" cx="614" cy="580" r="19"/>
</g>
</svg>
