<?xml version="1.0" encoding="utf-8"?>
<!-- Generator: Adobe Illustrator 23.0.0, SVG Export Plug-In . SVG Version: 6.00 Build 0)  -->
<svg version="1.1" id="Layer_1" xmlns="http://www.w3.org/2000/svg" xmlns:xlink="http://www.w3.org/1999/xlink" x="0px" y="0px"
	 viewBox="0 0 1158.6 162.1" style="enable-background:new 0 0 1158.6 162.1;" xml:space="preserve">
<style type="text/css">
	.st0{enable-background:new    ;}
	.st1{fill:#FFFFFF;}
</style>
<title>Asset 4</title>
<g>
	<g id="Layer_1-2">
		<g class="st0">
			<path class="st1" d="M113.1,20.3l2.8,1.9c-1,4.7-2.4,8.5-4.2,11.2c-1.8,2.7-4.4,4.9-7.8,6.5s-7.4,2.4-11.9,2.4
				c-2.4,0-5.3-0.1-8.7-0.4v74c7.4-2.2,13.3-5.1,17.7-8.7c4.4-3.5,8.4-8.6,12.2-15.2l2.8,1.4c-2.1,6.5-4.6,11.8-7.5,15.7
				c-4.5,6.4-10.4,11.5-17.6,15.2s-15.5,5.6-24.9,5.6c-9.2,0-17.8-1.8-25.8-5.3c-4.6-2.1-8.9-4.9-12.7-8.6c-3.9-3.7-7-8.2-9.5-13.5
				s-3.7-11.3-3.7-17.9c0-6.7,1.3-13.2,4-19.3c2.7-6.2,6.6-12,11.9-17.7c3.3-3.5,8-7.4,14-11.6L35,35.5c-3.4-0.2-7.2,0.5-11.3,2.2
				c-4.1,1.6-7.4,3.8-9.7,6.6c-2.3,2.7-4.3,6.8-6,12.2l-2.8-1.6C6.9,48,9,42.6,11.6,38.7c3.5-5.1,8.1-9.1,13.9-11.9
				s12.3-4.2,19.7-4.2c5.1,0,14.2,1.1,27.2,3.2S94.3,29,99.2,29c3.3,0,5.8-0.5,7.5-1.5S110.5,23.9,113.1,20.3z M52.4,36.5l-3.9-0.4
				C41.9,41.8,37.1,47.4,34.1,53c-4.2,7.6-6.2,15.4-6.2,23.4c0,13.7,5.6,24.8,16.8,33.5c3.6-3,5.7-5.4,6.5-7.3s1.2-5.6,1.2-11.4
				C52.4,91.2,52.4,36.5,52.4,36.5z M79.8,41.1c-4.6-0.6-8.7-1.3-12.3-2.1v43.8c0,5.1-0.2,8.4-0.6,9.8s-1.4,3-2.9,4.7
				c-2.7,3-8.2,7.8-16.4,14.4c4.1,2,7.4,3.3,10,4c4.4,1.2,8.6,1.8,12.7,1.8c2.1,0,5.3-0.3,9.6-0.8L79.8,41.1L79.8,41.1z"/>
			<path class="st1" d="M153,24.8l0.7,1.8c-3.5,2.2-5.9,4.6-7.2,7.2c-1.3,2.5-1.9,6.6-1.9,12.1v23.9l22.7-18c4.8,3.1,8,6.1,9.4,9.1
				s2.2,7.9,2.2,14.8v33.2c0,6.4-0.7,11-2,13.9c-2.1,4.8-6,9.3-11.6,13.5c-7.4,5.6-16.9,10.4-28.3,14.4l-1-2.8
				c9.3-3.9,15.8-7.4,19.5-10.5c3.7-3.2,6.1-6.5,7.2-10.1c0.8-2.7,1.2-9.7,1.2-21V75.5c0-3.4-0.3-5.8-1-7.1c-1-1.8-2.9-3.6-5.6-5.3
				l-12.5,10.1V114l5.2,5.2l-13,10.6l-13.1-10.5l5.8-5.8V46.9c0-6-0.5-10.2-1.6-12.4c-1.1-2.2-3.2-4.3-6.3-6.1l0.8-1.8
				c2.6,0.7,4.6,1.6,6.2,2.5c1.6,0.9,3.6,2.5,6.1,4.7c3-2.8,5.8-4.9,8.6-6.2S149.4,25.3,153,24.8z"/>
			<path class="st1" d="M222.9,51.7l20.7,24.1l-32.8,23v13.3l17,6.7l11.5-7.8l1.6,2.2l-23.7,16.6c-4.8-2.6-8.8-4.4-12-5.6
				c-3.1-1.1-7.6-2.3-13.3-3.5v-1.8c1.7-1,2.8-2.2,3.3-3.6c0.6-1.4,0.8-4.6,0.8-9.3V64c4.6-1.7,8.4-3.2,11.4-4.5
				C209.7,58.4,214.8,55.8,222.9,51.7z M211.8,60.1l-1,0.5v33.3l19.3-13.5L211.8,60.1z"/>
			<path class="st1" d="M373.7,18.8l1.4,3.1c-6.5,2.2-11.2,4.5-14.3,6.8c-3.1,2.3-5.1,4.7-6,7.2s-1.4,6.7-1.4,12.4v15.1L382,40.5
				c6,3.8,10.5,7.4,13.6,10.8s5.1,6.7,6.1,10.1s1.5,8.9,1.5,16.6v10.9c0,5.7-0.4,10-1.1,12.7c-0.7,2.8-2.1,5.5-4.3,8.3
				c-3.1,4-8.5,9-16.1,15c-5.5,4.3-8.8,7.3-10.1,8.9c-1.3,1.7-1.9,3.1-1.9,4.2c0,0.6,0.2,1.2,0.7,1.7s1.2,0.7,2.1,0.7
				c0.5,0,1.3-0.1,2.2-0.3c1-0.2,1.7-0.3,2.2-0.3c1.3,0,2.2,0.3,2.9,1c0.6,0.6,1,1.5,1,2.6c0,1.4-0.5,2.5-1.6,3.4
				c-1.5,1.2-3.2,1.8-5.3,1.8c-2.2,0-4.2-0.9-5.8-2.7s-2.4-3.9-2.4-6.5c0-1.8,0.6-3.8,1.8-6.2c1.2-2.4,4.2-6.5,8.9-12.3
				c4.7-5.8,7.8-10.3,9.2-13.3c1.4-3,2.4-6.7,2.9-10.9c-6.1-2.8-11.5-4.2-16.5-4.2c-6.3,0-12.5,1.4-18.7,4.3s-13.3,8-21.3,15.3
				c3.4-0.1,5.9-0.2,7.6-0.2c3.9,0,9,0.3,15.5,1c1.8,0.2,3.4,0.3,4.8,0.3c2.4,0,4.5-0.6,6.4-1.8s3.8-3.2,5.8-6l3.2,1.8l-16.4,23
				c-6.7-2.8-12.5-4.8-17.5-6s-10-1.8-15.1-1.8c-5.7,0-10.8,0.7-15.2,2.1c-4.4,1.4-7.6,3.2-9.4,5.3c-1.4,1.7-2.1,3.1-2.1,4.5
				c0,0.9,0.6,2.3,1.8,4c0.8,1.2,1.2,2.3,1.2,3.4c0,1.2-0.4,2.2-1.1,3s-1.6,1.2-2.5,1.2c-1.2,0-2.3-0.7-3.4-2s-1.7-2.9-1.7-4.8
				c0-2.3,0.6-4.6,1.9-6.8c1.2-2.2,4-5.5,8.3-9.8s7.1-7.7,8.3-10c1.3-2.3,1.9-4.6,1.9-6.9c0-1.7-0.5-3.1-1.4-4
				c-0.9-1-2.2-1.5-3.7-1.5c-2.9,0-5.3,2.1-7.1,6.3h-3.3c0.4-3.8,1.2-6.8,2.4-8.8c1.2-2,3-3.7,5.3-5.1c1.9-1.1,4.3-1.7,7.5-2
				c-0.2-5.9-1.4-10-3.5-12.3s-5.1-3.4-9.1-3.4c-2.4,0-4.4,0.5-5.8,1.4s-2.8,2.6-4.2,5.2l-2.8-0.8c0.6-3.2,1.4-5.6,2.4-7.2
				c1.6-2.4,3.8-4.3,6.4-5.6c2.7-1.3,5.5-2,8.6-2c1.9,0,4,0.1,6.4,0.4c-0.1-2.3-0.2-4.2-0.2-5.8c0-5.9,1.6-11.4,4.8-16.8
				c2.3-3.8,6.3-7.8,11.8-11.9c-5.5,1.7-9.2,2.6-11.1,2.6c-1.7,0-6.1-0.6-13.2-1.9c-2.8-0.5-4.6-0.8-5.6-0.8c-1.7,0-3.3,0.7-4.7,2.2
				s-2.4,4.1-3.1,7.9h-3.7c0.8-4.5,1.9-7.9,3.2-10.3c2.1-3.6,4.8-6.3,8.1-8.2c3.2-1.9,6.5-2.9,9.7-2.9c2,0,5.4,0.7,10.3,2.1
				s8.8,2.1,11.7,2.1c5.9,0,12.4-1.9,19.6-5.6l1.6,3.1c-9.9,3.9-16.8,8.6-20.5,14.4c-2.4,3.8-3.7,9.9-3.7,18.5v34.2
				c0,6.1-0.6,10.8-1.9,14.1c-1.2,3.3-4,7.7-8.3,13c5.9-3.4,10.5-6.8,13.7-10.2c3.2-3.4,5.2-6.7,6-9.7c0.9-3,1.3-8.2,1.3-15.6V55.6
				c0-7.8,0.9-13.5,2.7-17.3c1.8-3.8,4.9-7.1,9.3-10C354.7,25.5,362.5,22.3,373.7,18.8z M353.4,67.7V71c6.4,2.5,12.3,3.8,17.8,3.8
				c3.3,0,6.1-0.3,8.6-1c2.5-0.6,5.3-1.8,8.6-3.4c-0.9-3.6-2.5-6.8-4.8-9.5s-6-5.5-11-8.3L353.4,67.7z M353.4,93.1
				c6-2.5,11.7-3.8,17.1-3.8c3,0,5.7,0.3,8.3,0.8c2.6,0.5,5.7,1.5,9.6,3V74.2c-3.7,1.6-6.7,2.6-9.2,3.2s-5.3,0.8-8.3,0.8
				c-5.6,0-11.4-1.2-17.4-3.6v18.5H353.4z"/>
			<path class="st1" d="M467.7,54.8l2.6,1c-2.6,4.1-4.3,7.2-5,9.4s-1.1,5.1-1.1,8.8v31.2c0,5.2,0.4,8.4,1.1,9.7
				c0.7,1.3,1.6,1.9,2.6,1.9c0.5,0,1.1-0.1,1.7-0.4c0.4-0.2,1.4-1.1,3.1-2.5l1.8,2.3L459,129.8c-3.8-2.9-6.3-5.6-7.6-7.9
				s-2-5.6-2.1-9.7l-22.2,17.6c-8.4-6.8-12.6-13.6-12.6-20.2c0-4.5,0.9-8.6,2.7-12.5c2.4-5.1,6.5-11.1,12.4-18l-8.8-18.8l1-1.9
				c1.9,0.1,3.3,0.2,4.2,0.2c5.7,0,10.8-2.3,15.2-6.8c3.6,2.1,7.4,3.7,11.7,5c4.2,1.3,7.4,1.9,9.7,1.9c1,0,1.8-0.2,2.3-0.5
				C465.6,57.7,466.5,56.6,467.7,54.8z M449.3,68.7l-25-7.7l8.9,18.9l16.1,7.6V68.7z M449.3,90.6l-17.7-8.3
				c-2.7,6-4.1,11.2-4.1,15.7c0,7.9,3.6,14.4,10.8,19.6l11.1-8.9L449.3,90.6L449.3,90.6z"/>
			<path class="st1" d="M514.4,24.8v1.9c-3.9,2-6.6,4.5-8.2,7.4s-2.4,7.3-2.4,13.2v65.1l8.3,6.2l3.2-2.6l1.8,2.6l-14.7,11.1
				c-4.4-3.9-7.7-6.4-9.9-7.7c-2.2-1.3-5.1-2.4-8.7-3.4V117c1.4-0.8,2.4-1.9,3.2-3.1c0.8-1.3,1.3-2.8,1.6-4.5
				c0.1-0.6,0.2-3.5,0.2-8.8V48.3c0-4.4-0.2-7.5-0.5-9.3c-0.3-1.7-1-3.4-2.1-5c-1-1.6-2.8-3.4-5.2-5.3l1.2-1.5
				c4.5,1.3,8.4,3.9,12,7.8c3.7-3.9,7-6.5,9.9-7.9C507.1,25.7,510.5,24.9,514.4,24.8z"/>
			<path class="st1" d="M523.5,26.7l49.8,34.2c0.8-1.8,1.6-3.2,2.6-4.1c1-0.9,2.4-1.8,4.4-2.6v3c-1,1.3-1.6,2.5-1.9,3.6
				c-0.3,1.1-0.4,3.3-0.4,6.6v49.3c-6.2,2.3-10.8,4.4-13.8,6.1s-6.3,4.1-9.8,7c-5.8-3.8-10.9-6.5-15.3-8.2
				c-4.5-1.7-9.2-2.9-14.4-3.5v-1.4c1.8-1.5,2.9-3,3.4-4.6c0.5-1.5,0.8-4.7,0.8-9.6V64.1c6.7-1.9,11.4-4,14.2-6.3l-19.5-13.3
				L523.5,26.7L523.5,26.7z M562.9,71.5l-15.1-10.3c-1.3,1.1-2.7,2-4.1,2.9v45.3L563,118V71.5H562.9z"/>
			<path class="st1" d="M623.9,51.7l20.7,24.1l-32.8,23v13.3l17,6.7l11.5-7.8l1.6,2.2l-23.7,16.6c-4.8-2.6-8.8-4.4-12-5.6
				c-3.1-1.1-7.6-2.3-13.3-3.5v-1.8c1.7-1,2.8-2.2,3.3-3.6c0.6-1.4,0.8-4.6,0.8-9.3V64c4.6-1.7,8.4-3.2,11.4-4.5
				C610.6,58.4,615.8,55.8,623.9,51.7z M612.7,60.1l-1,0.5v33.3L631,80.3L612.7,60.1z"/>
			<path class="st1" d="M697.3,51.7l10,11l7.1-6.9l2.1,2c-3.5,3.1-5.5,5.5-6.3,7.1c-1,2.2-1.5,5.1-1.5,8.9v34.9
				c0,3.2,0.5,5.6,1.5,7.2c0.6,1,1.3,1.5,2.1,1.5c0.7,0,2.3-1,4.9-2.9l1.8,2.3l-15.7,12.9c-4.1-3.1-6.7-5.8-7.8-8.1
				c-1.2-2.4-1.7-6.1-1.7-11.4v-40l-6.5-6.8l-12.5,10V114l5.5,5.2l-12.9,10.5l-13-10.5l5.5-5.2V76.6c0-5.3-0.5-8.9-1.6-10.8
				c-0.7-1.3-1.6-1.9-2.5-1.9c-1,0-2.5,1-4.4,2.9l-1.8-2.3l15.6-12.9c4.3,3.2,7,5.7,8.1,7.6s1.6,4.5,1.6,7.8v2.6L697.3,51.7z"/>
			<path class="st1" d="M874.2,20.3l2.8,1.9c-1,4.7-2.4,8.5-4.2,11.2s-4.4,4.9-7.8,6.5c-3.4,1.6-7.4,2.4-11.9,2.4
				c-2.4,0-5.3-0.1-8.7-0.4v74c7.4-2.2,13.3-5.1,17.7-8.7c4.4-3.5,8.4-8.6,12.2-15.2l2.8,1.4c-2.1,6.5-4.6,11.8-7.5,15.7
				c-4.5,6.4-10.4,11.5-17.6,15.2c-7.2,3.7-15.5,5.6-24.9,5.6c-9.2,0-17.8-1.8-25.8-5.3c-4.6-2.1-8.9-4.9-12.7-8.6
				c-3.9-3.7-7-8.2-9.5-13.5s-3.7-11.3-3.7-17.9c0-6.7,1.3-13.2,4-19.3c2.7-6.2,6.6-12,11.9-17.7c3.3-3.5,8-7.4,14-11.6l-9.2-0.5
				c-3.4-0.2-7.2,0.5-11.3,2.2c-4.1,1.6-7.4,3.8-9.7,6.6c-2.3,2.7-4.3,6.8-6,12.2l-2.8-1.6c1.7-6.9,3.8-12.3,6.4-16.2
				c3.5-5.1,8.1-9.1,13.9-11.9c5.8-2.8,12.3-4.2,19.7-4.2c5.1,0,14.2,1.1,27.2,3.2s21.9,3.2,26.8,3.2c3.3,0,5.8-0.5,7.5-1.5
				S871.6,23.9,874.2,20.3z M813.5,36.5l-3.9-0.4c-6.5,5.6-11.4,11.2-14.4,16.8c-4.2,7.6-6.2,15.4-6.2,23.4
				c0,13.7,5.6,24.8,16.8,33.5c3.6-3,5.7-5.4,6.5-7.3s1.2-5.6,1.2-11.4L813.5,36.5L813.5,36.5z M841,41.1c-4.6-0.6-8.7-1.3-12.3-2.1
				v43.8c0,5.1-0.2,8.4-0.6,9.8c-0.4,1.4-1.4,3-2.9,4.7c-2.7,3-8.2,7.8-16.4,14.4c4.1,2,7.4,3.3,10,4c4.4,1.2,8.6,1.8,12.7,1.8
				c2.1,0,5.3-0.3,9.6-0.8L841,41.1L841,41.1z"/>
			<path class="st1" d="M898.9,51.7l13,10.8l-5.8,5.6v39.8c0,4.2,0.4,6.9,1.1,8.2c0.7,1.3,1.4,1.9,2.2,1.9c0.5,0,1-0.1,1.5-0.4
				c0.6-0.3,1.9-1.3,3.8-2.9l1.8,2.3l-15.7,12.7c-3.9-2.8-6.4-5.4-7.6-7.9c-1.1-2.5-1.7-6.8-1.7-12.9V68.1l-5.5-5.6L898.9,51.7z
				 M904.5,26.6h9.3l-10.1,15.8h-2.9L904.5,26.6z"/>
			<path class="st1" d="M1023.9,56l2.1,2c-2.8,2.4-4.7,4.4-5.7,5.9s-1.6,2.9-1.9,4.4c-0.3,1.5-0.4,4.5-0.4,9v30.4c0,4,0.4,6.7,1.2,8
				s1.5,2,2.2,2c1,0,2.7-1,5.1-3l1.8,2.3l-15.9,12.9c-3.6-2.8-6-5.2-7.1-7c-1.6-2.7-2.4-5.6-2.4-8.7V69.9l-7.3-6.4L984,74.4V114
				l5.5,5.9l-12.8,9.9l-13-9.9l5.3-5.9V77.6c0-4.2-0.3-7-1-8.2c-0.9-1.7-3-3.6-6.4-5.9L950,73.2V114l5.6,5.9l-12.9,9.9l-13.1-9.9
				l5.7-5.9V74.8c0-4.1-0.5-7-1.5-8.8c-0.8-1.4-1.5-2.1-2.2-2.1c-0.8,0-2.4,1-4.8,2.9l-1.8-2.3l15.2-12.9c3.3,2.3,5.6,4.3,6.8,5.8
				s2,3.1,2.5,4.9c0.3,1.3,0.4,3.8,0.4,7.5l21.9-18.2c4.8,3.8,7.9,7,9.4,9.4c1.5,2.5,2.3,5.7,2.6,9.5l20.5-19l12,11.2L1023.9,56z"/>
			<path class="st1" d="M1068.3,51.7l20.7,24.1l-32.8,23v13.3l17,6.7l11.5-7.8l1.6,2.2l-23.7,16.6c-4.8-2.6-8.8-4.4-12-5.6
				c-3.1-1.1-7.6-2.3-13.3-3.5v-1.8c1.7-1,2.8-2.2,3.3-3.6c0.6-1.4,0.8-4.6,0.8-9.3V64c4.6-1.7,8.4-3.2,11.4-4.5
				C1055.1,58.4,1060.2,55.8,1068.3,51.7z M1057.2,60.1l-1,0.5v33.3l19.3-13.5L1057.2,60.1z"/>
			<path class="st1" d="M1133.9,78.8l17,8.9v30.8c-4.1,0.4-7.8,1.4-11.2,3c-3.3,1.6-7.1,4.3-11.3,8.2c-3.6-2.1-6.8-3.6-9.4-4.5
				c-2.7-0.8-5.5-1.2-8.5-1.2c-4.6,0-8.7,1.4-12.2,4.2c-1.3,1-2.3,1.5-2.9,1.5c-0.5,0-1.1-0.3-1.6-0.8s-0.8-1.1-0.8-1.6
				c0-0.6,0.5-1.4,1.5-2.3c0.6-0.6,1.6-1.7,3-3.4l6.7-8.3l9.4-12.5l-16-8.6V64.9c5-1.6,9-3.3,11.9-5.2s5.6-4.6,8.3-7.9
				c6.2,2.6,11.3,4.5,15.1,5.6c2.7,0.7,5.3,1.1,7.8,1.1c2.7,0,4.9-0.6,6.4-1.8s2.3-2.5,2.3-3.8c0-0.9-0.5-1.8-1.5-2.6
				c-1.9-1.7-2.9-3.4-2.9-5c0-1.5,0.4-2.7,1.2-3.6c0.8-0.9,1.8-1.4,2.8-1.4c1.4,0,2.6,0.6,3.7,1.9c1.1,1.2,1.6,2.9,1.6,4.9
				c0,2.1-0.4,4.2-1.3,6.2s-2.6,4.6-5.1,7.8L1133.9,78.8z M1125.1,90.6l-17.7,23.7c2.1-0.7,4.1-1.3,6-1.6c1.9-0.3,3.5-0.5,5.1-0.5
				c5.6,0,11.5,1.9,17.5,5.6V96.4L1125.1,90.6z M1112.5,83.9l10,5.2l16-21.2c-3.3,0.9-6.1,1.4-8.5,1.4c-6,0-11.8-2-17.5-6V83.9z"/>
		</g>
	</g>
</g>
</svg>
